<?xml version="1.0" encoding="utf-8"?>
<!-- Generator: Adobe Illustrator 15.1.0, SVG Export Plug-In . SVG Version: 6.00 Build 0)  -->
<!DOCTYPE svg PUBLIC "-//W3C//DTD SVG 1.1//EN" "http://www.w3.org/Graphics/SVG/1.1/DTD/svg11.dtd">
<svg version="1.1" id="Camada_1" xmlns="http://www.w3.org/2000/svg" xmlns:xlink="http://www.w3.org/1999/xlink" x="0px" y="0px"
	 width="25px" height="25px" viewBox="0 0 25 25" enable-background="new 0 0 25 25" xml:space="preserve">
<g>
	<path fill="#211915" d="M-430.541,6.349c0-1.398-1.927-2.849-3.325-2.849h-7.304c-1.399,0-3.326,1.451-3.326,2.849v1.037h13.955
		V6.349z"/>
	<path fill="#211915" d="M-428.51,14.555c0-1.555-1.388-2.129-1.388-2.129s0-2.21,0-3.032s-0.645-0.753-0.645-0.753V8.017h-7.228
		l0,0l-6.7,0.004l-0.006,0.619c0,0-0.644-0.069-0.644,0.753s0,3.032,0,3.032s-1.39,0.575-1.39,2.129
		c0,1.557,1.971,3.029,1.971,3.029s-0.159,1.586,1.188,2.588c1.349,1.006,3.307,0.557,3.94-0.078c0,0,0-1.768,0-1.957
		c0-0.191,0.013-0.611,0.548-0.633c0.594-0.021,0.628,0.502,0.628,0.502s-0.015-0.814,0.725-0.814c0.738,0,0.724,0.814,0.724,0.814
		s0.023-0.502,0.546-0.502c0.535,0,0.631,0.438,0.631,0.633s0,1.957,0,1.957c0.635,0.635,2.592,1.084,3.94,0.078
		c1.349-1.002,1.189-2.588,1.189-2.588S-428.51,16.111-428.51,14.555z M-441.604,19.486c-0.541,0-0.978-0.438-0.978-0.977
		c0-0.541,0.437-0.979,0.978-0.979s0.979,0.438,0.979,0.979C-440.624,19.049-441.063,19.486-441.604,19.486z M-442.053,14.764
		c0,0,0.688-0.027,1.381-0.414v0.625C-441.222,15.059-441.784,15.02-442.053,14.764z M-438.809,14.213
		c-0.313,0.156-0.61,0.342-0.925,0.49c-0.091,0.045-0.194,0.084-0.303,0.121v-0.938c0.383-0.309,0.798-0.58,1.228-0.777V14.213z
		 M-441.326,11.692c-0.872,0.476-1.493-0.238-1.652-0.806c-0.158-0.568-0.238-1.598-0.238-1.598h4.998
		C-438.683,9.763-440.454,11.216-441.326,11.692z M-436.891,13.924c-0.201-0.027-0.424-0.033-0.72-0.033
		c-0.201,0-0.386,0.029-0.563,0.074v-1.086c0.237-0.063,0.479-0.098,0.72-0.098c0.197,0,0.385,0.025,0.563,0.066V13.924z
		 M-434.96,14.781c-0.245-0.082-0.495-0.197-0.748-0.355c-0.214-0.133-0.389-0.232-0.548-0.309v-1.043
		c0.422,0.201,0.79,0.473,1.123,0.699c0.051,0.033,0.11,0.07,0.173,0.109V14.781z M-433.413,19.486c-0.54,0-0.979-0.438-0.979-0.977
		c0-0.541,0.439-0.979,0.979-0.979c0.539,0,0.979,0.438,0.979,0.979C-432.435,19.049-432.874,19.486-433.413,19.486z
		 M-434.325,14.941v-0.703c0.604,0.316,1.255,0.604,1.374,0.604c0.179,0,0.218,0.258-0.496,0.199
		C-433.733,15.018-434.027,14.992-434.325,14.941z M-432.039,10.886c-0.159,0.568-0.78,1.282-1.652,0.806
		c-0.872-0.476-2.645-1.929-3.106-2.404h4.997C-431.801,9.288-431.88,10.317-432.039,10.886z"/>
	<path fill="#211915" d="M-438.832,17.635c-0.264,0-0.477,0.215-0.477,0.477v2.221c0,0.262,0.213,0.475,0.477,0.475
		c0.263,0,0.477-0.213,0.477-0.475v-2.221C-438.355,17.85-438.569,17.635-438.832,17.635z"/>
	<path fill="#211915" d="M-436.215,17.635c-0.263,0-0.477,0.215-0.477,0.477v2.221c0,0.262,0.214,0.475,0.477,0.475
		c0.264,0,0.477-0.213,0.477-0.475v-2.221C-435.738,17.85-435.951,17.635-436.215,17.635z"/>
	<path fill="#211915" d="M-437.514,17.328c-0.328,0-0.595,0.268-0.595,0.594v2.984c0,0.328,0.267,0.594,0.595,0.594
		s0.595-0.266,0.595-0.594v-2.984C-436.919,17.596-437.186,17.328-437.514,17.328z"/>
</g>
<g>
	<path fill="#211915" d="M-612.915,9.368h-9.189l-0.046,9.174l1.3,1.3h6.692l1.243-1.243V9.368z M-615.516,14.569h-3.988
		c-0.368,0-0.668-0.299-0.668-0.668c0-0.37,0.3-0.669,0.668-0.669h3.988c0.37,0,0.669,0.299,0.669,0.669
		C-614.847,14.271-615.146,14.569-615.516,14.569z M-615.516,11.938h-3.988c-0.368,0-0.668-0.299-0.668-0.668
		c0-0.37,0.3-0.668,0.668-0.668h3.988c0.37,0,0.669,0.299,0.669,0.668C-614.847,11.639-615.146,11.938-615.516,11.938z"/>
	<path fill="#211915" d="M-612.84,7.799c0-2.558-2.073-4.633-4.631-4.633c-2.559,0-4.638,2.075-4.638,4.633c0,0.233,0,0.619,0,0.849
		h9.271C-612.837,8.417-612.84,8.032-612.84,7.799z M-617.498,6.819c-0.728,0-1.316-0.589-1.316-1.316
		c0-0.727,0.589-1.315,1.316-1.315c0.726,0,1.314,0.588,1.314,1.315C-616.184,6.23-616.772,6.819-617.498,6.819z M-614.847,7.785
		c-0.362,0-0.658-0.295-0.658-0.657c0-0.363,0.296-0.658,0.658-0.658c0.363,0,0.658,0.294,0.658,0.658
		C-614.188,7.49-614.483,7.785-614.847,7.785z"/>
	<path fill="#211915" d="M-609.604,18.53c0,0,0-6.333,0-7.744c0-1.412-1.247-1.48-1.247-1.48h-1.363l-0.007,9.251l-1.37,3.275h5.289
		L-609.604,18.53z"/>
	<path fill="#211915" d="M-622.786,9.307h-1.362c0,0-1.248,0.068-1.248,1.48c0,1.411,0,7.744,0,7.744l-1.302,3.303h5.29
		l-1.371-3.275L-622.786,9.307z"/>
</g>
<g>
	<path fill-rule="evenodd" clip-rule="evenodd" fill="#211915" d="M-482.333,10.032c0.695,0.71,0.175,2.637,1.076,3.141
		c-0.006-1.71-0.125-3.621-0.358-5.294c-0.151-1.09-0.489-2.058-0.538-3.143c-0.119,0-0.239,0-0.359,0
		c-0.512,2.6-0.973,5.25-0.897,8.437C-482.502,12.676-483.13,10.64-482.333,10.032z"/>
	<path fill-rule="evenodd" clip-rule="evenodd" fill="#211915" d="M-485.204,14.519c0.217-1.009,0.791-1.661,1.614-2.063
		c-0.069-0.938,0.13-1.606,0.09-2.513c-0.364,0.024-0.608,0.168-0.897,0.269c0.111,0.337,0.367,1.078,0,1.346
		c-0.715,0.088-0.785-0.472-1.166-0.719c-0.276,0.443-0.78,0.656-0.987,1.167c0.423,0.116,0.599,0.479,0.717,0.898
		c-0.153,0.46-1.029,0.251-1.345,0.089c-0.104,0.494-0.346,0.852-0.359,1.436C-486.831,14.688-486.007,14.758-485.204,14.519z"/>
	<path fill-rule="evenodd" clip-rule="evenodd" fill="#211915" d="M-481.076,12.456c0.823,0.402,1.364,1.088,1.614,2.063
		c0.808,0.242,1.609,0.151,2.335-0.09c-0.071-0.527-0.236-0.96-0.359-1.436c-0.343,0.116-1.306,0.445-1.346-0.179
		c0.022-0.515,0.548-0.529,0.628-0.988c-0.318-0.31-0.523-0.733-0.987-0.897c-0.392,0.207-0.473,0.724-1.168,0.628
		c-0.214-0.375-0.056-1.044,0.091-1.346c-0.307-0.082-0.557-0.222-0.897-0.269C-481.236,10.88-481.037,11.548-481.076,12.456z"/>
	<path fill-rule="evenodd" clip-rule="evenodd" fill="#211915" d="M-480.089,14.519c-1.531-0.77-2.053-2.071-2.154-4.307
		c-0.464,0.694-0.275,1.398-0.448,1.974c-0.265,0.881-0.869,1.734-1.706,2.243c-1.767,1.077-5.495-0.196-6.91,1.437
		c0,0.06,0,0.12,0,0.18c0.398,0.47,0.696,1.038,1.076,1.525c1.26-1.11,2.772-1.598,4.668-1.346c1.696,0.226,2.104,1.834,3.948,1.436
		c1.146-2.013,5.857-1.776,7.18-0.09c0.336-0.562,0.76-1.034,1.077-1.614c0-0.031,0-0.061,0-0.091
		C-474.821,14.234-478.172,15.483-480.089,14.519z M-481.885,16.404c-1.638,0.402-2.766-2.159-0.896-2.692
		c0.423-0.121,0.623-0.158,0.896-0.091C-481.022,13.832-480.273,16.009-481.885,16.404z"/>
	<path fill-rule="evenodd" clip-rule="evenodd" fill="#211915" d="M-482.691,13.98c-1.55,0.45-0.544,2.555,0.807,2.154
		C-480.697,15.783-481.052,13.505-482.691,13.98z M-482.423,15.956c-0.976-0.063-1.196-1.502-0.18-1.796
		C-481.151,13.741-481.104,16.039-482.423,15.956z"/>
	<path fill-rule="evenodd" clip-rule="evenodd" fill="#211915" d="M-479.82,16.673c-0.534,0.261-0.805,0.878-1.256,1.077
		c-1.43,0.637-2.976-0.011-3.68-1.077c-0.774-0.168-1.796-0.417-2.692-0.18c0.097,0.321,0.108,0.729,0.27,0.988
		c1.759-0.409,2.87,0.421,3.409,1.704c0.104,0.247,0.158,0.843,0.27,0.988c0.037,0.046,0.512-0.104,0.45,0.09
		c0.478,0,0.956,0,1.435,0c0.023-0.188,0.395-0.025,0.449-0.18c0.205-1.818,1.487-2.975,3.59-2.603
		c0.344-0.106,0.18-0.718,0.358-0.988C-478.03,16.393-479.097,16.321-479.82,16.673z"/>
</g>
<path fill-rule="evenodd" clip-rule="evenodd" fill="#211915" d="M-526.755,3.728c-0.488,0-0.977,0-1.464,0
	c-4.586,0.615-8.4,4.035-8.027,9.591c0.155,2.3,1.27,4.074,2.577,5.38c1.397,1.394,3.103,2.313,5.45,2.573c0.487,0,0.976,0,1.464,0
	c4.573-0.68,7.203-3.298,8.026-7.72c0-0.701,0-1.403,0-2.104C-519.552,7.024-522.182,4.406-526.755,3.728z M-526.989,4.605
	c2.915,0.327,4.861,1.619,6.094,3.625c-0.108,0.008-0.196,0.038-0.235,0.117c-0.454-0.249-0.658-0.745-0.996-1.111
	c-0.249,0.16-0.395,0.425-0.644,0.585c-0.867-0.713-1.784-1.377-3.048-1.696c0.092-0.26,0.165-0.536,0.234-0.818
	c-0.401-0.165-0.904-0.227-1.464-0.234C-527.041,4.904-527.079,4.69-526.989,4.605z M-528.044,4.605
	c0.23-0.035,0.069,0.32,0.118,0.468c-0.575-0.027-0.967,0.128-1.466,0.175c0.088,0.263,0.107,0.595,0.233,0.819
	c-1.18,0.419-2.193,1.007-3.046,1.754c-0.219-0.151-0.362-0.378-0.585-0.527c-0.466,0.239-0.562,0.844-1.056,1.053
	c-0.038-0.079-0.124-0.109-0.233-0.117C-532.853,6.237-530.911,4.959-528.044,4.605z M-534.489,16.066
	c-1.184-1.652-1.121-5.399-0.059-7.135c0.123,0.053,0.175,0.178,0.353,0.176c-0.118,0.506-0.406,0.841-0.469,1.404
	c0.229,0.122,0.503,0.199,0.819,0.234c-0.313,0.972-0.313,2.535,0,3.508c-0.336-0.004-0.495,0.167-0.819,0.176
	c0.036,0.607,0.351,0.936,0.469,1.462C-534.332,15.911-534.447,15.951-534.489,16.066z M-527.926,20.394
	c-2.956-0.306-4.904-1.617-6.152-3.626c0.652-0.318,0.772,0.692,1.229,0.937c0.299-0.091,0.397-0.384,0.645-0.526
	c0.875,0.707,1.78,1.381,3.046,1.696c-0.108,0.241-0.124,0.576-0.233,0.817c0.402,0.165,0.905,0.229,1.466,0.234
	C-527.926,20.083-527.926,20.238-527.926,20.394z M-528.455,17.646c0.157-0.838,0.336-1.654,0.47-2.515
	c-0.554-0.247-1.162-0.439-1.465-0.937c-0.699,0.53-1.326,1.133-1.992,1.697c-0.471-0.408-0.771-0.985-0.996-1.638
	c0.794-0.319,1.667-0.558,2.461-0.877c-0.151-0.425-0.188-1.28,0-1.697c-0.707-0.423-1.681-0.583-2.461-0.934
	c0.2-0.659,0.552-1.165,0.938-1.638c0.711,0.519,1.337,1.122,1.99,1.695c0.407-0.395,0.843-0.757,1.524-0.877
	c-0.114-0.898-0.315-1.712-0.47-2.573c0.52-0.154,1.422-0.176,1.934,0c-0.149,0.845-0.327,1.661-0.468,2.515
	c0.576,0.224,1.154,0.446,1.465,0.935c0.757-0.511,1.305-1.232,2.109-1.695c0.305,0.533,0.71,0.968,0.879,1.638
	c-0.791,0.321-1.664,0.561-2.463,0.876c0.175,0.527,0.216,1.186,0,1.696c0.713,0.42,1.686,0.581,2.463,0.936
	c-0.169,0.669-0.574,1.104-0.879,1.638c-0.776-0.473-1.368-1.13-2.051-1.697c-0.414,0.389-0.819,0.782-1.523,0.879
	c0.122,0.892,0.322,1.705,0.468,2.572C-527.033,17.82-527.936,17.801-528.455,17.646z M-527.048,20.336c0-0.137,0-0.273,0-0.41
	c0.573,0.027,0.965-0.128,1.464-0.176c-0.046-0.304-0.12-0.58-0.234-0.818c1.143-0.438,2.216-0.947,2.989-1.754
	c0.374,0.009,0.406,0.584,0.645,0.585c0.366,0.003,0.721-1.51,1.289-0.995C-522.111,18.752-524.184,20.191-527.048,20.336z
	 M-520.428,16.009c-0.171,0.014-0.179-0.133-0.352-0.117c0.107-0.519,0.431-0.818,0.47-1.403c-0.205-0.128-0.489-0.176-0.763-0.234
	c0.225-1.076,0.225-2.433,0-3.508c0.292-0.021,0.461-0.164,0.763-0.176c-0.013-0.631-0.362-0.925-0.47-1.462
	c0.187,0.009,0.195-0.155,0.411-0.117C-519.371,10.833-519.306,14.247-520.428,16.009z"/>
<path fill-rule="evenodd" clip-rule="evenodd" fill="#211915" d="M-355.896,12.42c0.298-3.074,1.796-5.259,3.785-6.445
	c-0.71,1.195-1.59,2.319-1.656,4.021c-0.076,1.962,1.127,3.771,2.425,4.198c2.981,0.982,3.502-3.841,1.951-5.676
	c-0.336-0.397-0.73-0.628-1.183-1.005c0.302-0.348,0.551-0.75,0.886-1.064c0.56,0.407,0.898,1.033,1.419,1.478
	c-0.113-0.91-0.399-1.649-0.768-2.306c0.477-0.686,1.015-1.31,1.537-1.951c0.582,0.619,1.105,1.299,1.596,2.01
	c-0.436,0.549-0.672,1.298-0.768,2.188c0.456-0.234,0.767-1.125,1.418-1.359c0.334,0.297,0.612,0.649,0.828,1.063
	c-0.325,0.232-0.679,0.435-0.945,0.709c-1.259,1.294-1.654,4.541-0.06,5.676c1.965,1.398,3.993-1.305,4.198-3.311
	c0.222-2.172-1.031-3.492-1.597-4.73c1.936,1.357,3.326,3.256,3.726,6.149c0,0.572,0,1.144,0,1.715
	c-0.724,4.367-3.942,7.984-9.343,7.509c-2.023-0.177-3.902-1.252-5.084-2.483c-1.25-1.3-2.167-3.166-2.366-5.38
	C-355.896,13.09-355.896,12.755-355.896,12.42z"/>
<g>
	<path fill-rule="evenodd" clip-rule="evenodd" fill="#211915" d="M-296.772,15.948c1.235-1.346,1.769-4.697,0.547-6.473
		c0.542,1.762-0.389,3.776-1.276,4.376c1.797-2.474,0.332-6.901-1.733-7.659c1.793,1.393,0.445,4.48-0.638,5.653
		c1.724,2.488,0.313,6.266-2.097,7.021c0.017-0.897,0.006-1.769-0.091-2.553c0.373,0.177,0.706,0.871,1.003,0.82
		c-0.207-0.361-0.641-0.911-0.548-1.276c0.598-0.041,1.197-0.08,1.642-0.273c-0.589-0.11-1.368-0.029-1.732-0.364
		c0.176-0.404,0.506-1.134,0.456-1.459c-0.237,0.341-0.553,1.086-0.82,1.094c-0.053-2.713-0.182-5.35-0.183-8.115
		c0.012-0.119,0.014-0.659-0.092-0.364c0,0.212,0,0.426,0,0.638c-0.061,2.644-0.185,5.225-0.182,7.932
		c-0.416-0.282-0.556-0.842-0.912-1.185c0.069,0.585,0.558,1.183,0.456,1.642c-0.629,0.01-1.183,0.093-1.641,0.272
		c0.58,0.058,1.154,0.123,1.641,0.273c-0.131,0.416-0.313,0.781-0.547,1.095c0.183,0.426,0.711-0.785,0.912-0.639
		c-0.061,0.791,0.12,1.823-0.092,2.462c-2.403-0.806-3.64-4.485-2.097-7.111c-1.201-1.082-2.089-4.293-0.729-5.562
		c-2.212,1.247-3.281,5.464-1.459,7.933c-1.089-0.927-1.827-2.938-1.459-4.741c-1.08,1.957-0.626,5.259,0.639,6.654
		c-0.623-0.471-0.886-1.302-1.276-2.005c0.586,3.228,2.736,5.345,6.291,5.563c3.956,0.242,6.803-2.151,7.202-5.563
		C-295.83,14.765-296.337,15.716-296.772,15.948z"/>
	<path fill-rule="evenodd" clip-rule="evenodd" fill="#211915" d="M-302.288,3.61c-4.908,0-8.889,3.98-8.889,8.889
		c0,4.91,3.98,8.891,8.889,8.891c4.909,0,8.89-3.98,8.89-8.891C-293.398,7.59-297.379,3.61-302.288,3.61z M-302.288,20.326
		c-4.321,0-7.825-3.505-7.825-7.827c0-4.321,3.504-7.826,7.825-7.826c4.322,0,7.826,3.504,7.826,7.826
		C-294.462,16.821-297.966,20.326-302.288,20.326z"/>
</g>
<g>
	<path fill="#211915" d="M-654.989,15.598v-0.315h-1.324v-0.667h2.902c0.123-0.55,0.197-1.117,0.218-1.697h-18.676
		c0.176,5.005,4.288,9.01,9.338,9.01c0.742,0,1.465-0.088,2.157-0.252v-0.365h-0.668v-0.667h2.087v-0.668h0.603V19.31h2.039v-0.667
		h0.657v-0.667h-1.334v-0.418h-0.003v-0.273h-1.962v-0.668h1.298V15.95h2.665v-0.353H-654.989z"/>
	<g>
		<path fill="#211915" d="M-653.423,10.491h-3.567V9.823h1.334V9.157h-2.696V8.49h2.037V8.113h0.002V7.822h-0.677V7.156h-1.362
			V6.489h0.695V6.418h-0.001V5.821h-1.297V5.155h0.603V4.224c-1.257-0.629-2.678-0.984-4.179-0.984c-5.05,0-9.162,4.004-9.338,9.009
			h18.675C-653.215,11.647-653.293,11.059-653.423,10.491z M-665.699,10.491c-1.474,0-2.668-1.195-2.668-2.668
			s1.194-2.667,2.668-2.667s2.668,1.194,2.668,2.667S-664.226,10.491-665.699,10.491z"/>
	</g>
</g>
<polygon fill="#FFFFFF" points="-939.142,1517.584 -939.142,1501.503 -896.664,1501.503 -896.667,1501.499 -939.188,1501.499 
	-939.188,1517.584 "/>
<path fill="#211915" d="M-563.286,17.441c-0.208-0.591-2.504-6.574-2.504-6.574l-0.027-3.168c0,0-0.527-4.891-6.614-4.688
	c-0.051,0.001-0.101,0.003-0.149,0.008c-0.05-0.005-0.1-0.007-0.148-0.008c-6.088-0.203-6.616,4.688-6.616,4.688l-0.026,3.168
	c0,0-2.297,5.983-2.504,6.574c-0.209,0.59,0.167,0.866,0.167,0.866c3.255,2.682,6.392,3.555,9.128,3.525
	c2.736,0.029,5.873-0.844,9.128-3.525C-563.453,18.308-563.077,18.031-563.286,17.441z M-576.957,11.52
	c0.215-0.43,0.645-1.182,2.135-1.154c0,0,1.582-0.082,1.671,1.302l-0.006,0.846c0,0,0.107,0.43-0.604,0.456h-2.914
	c0,0-0.457-0.093-0.442-0.456C-577.118,12.514-577.172,11.949-576.957,11.52z M-576.56,19.517c-0.278,0-0.504-0.225-0.504-0.503
	c0-0.279,0.226-0.505,0.504-0.505s0.504,0.226,0.504,0.505C-576.056,19.292-576.281,19.517-576.56,19.517z M-574.569,19.014h-0.631
	V17.61l0.631-0.631V19.014z M-572.891,19.014h-0.953v-2.666h0.953V19.014z M-572.491,15.631h-0.948v-0.949
	c0-0.074,0.009-0.146,0.025-0.215c0.097-0.42,0.473-0.734,0.923-0.734s0.826,0.314,0.924,0.734c0.016,0.069,0.025,0.141,0.025,0.215
	v0.949H-572.491z M-571.266,19.014h-0.954v-2.666h0.954V19.014z M-569.909,19.014h-0.631v-2.034l0.631,0.631V19.014z
	 M-568.584,19.517c-0.277,0-0.503-0.225-0.503-0.503c0-0.279,0.226-0.505,0.503-0.505c0.278,0,0.504,0.226,0.504,0.505
	C-568.08,19.292-568.306,19.517-568.584,19.517z M-567.827,12.514c0.014,0.363-0.442,0.456-0.442,0.456h-2.914
	c-0.712-0.026-0.604-0.456-0.604-0.456l-0.006-0.846c0.089-1.384,1.671-1.302,1.671-1.302c1.49-0.028,1.92,0.724,2.135,1.154
	S-567.827,12.514-567.827,12.514z M-564.297,17.989c-0.039,0.017-0.081,0.023-0.122,0.023c-0.128,0-0.249-0.076-0.301-0.201
	l-2.069-5.056c-0.001-0.003-0.002-0.005-0.003-0.008c-0.894-2.373-1.401-2.773-1.457-2.812c-0.021-0.009-0.039-0.021-0.058-0.035
	c-1.203-0.905-2.484-0.447-2.917-0.247c-0.013,0.014-0.025,0.029-0.04,0.042c-0.142,0.12-0.352,0.252-0.603,0.344
	c-0.212,0.086-0.423,0.12-0.624,0.118c-0.202,0.002-0.413-0.032-0.626-0.118c-0.251-0.092-0.46-0.224-0.602-0.344
	c-0.015-0.013-0.029-0.028-0.041-0.042c-0.432-0.201-1.714-0.66-2.917,0.247c-0.018,0.014-0.037,0.026-0.058,0.035
	c-0.055,0.039-0.563,0.439-1.457,2.812c-0.001,0.003-0.001,0.005-0.004,0.008l-2.068,5.056c-0.051,0.125-0.173,0.201-0.301,0.201
	c-0.04,0-0.082-0.007-0.122-0.023c-0.165-0.067-0.246-0.256-0.179-0.42l2.067-5.051c0.91-2.415,1.495-3.008,1.754-3.149
	c1.788-1.324,3.684-0.242,3.765-0.195c0.019,0.012,0.037,0.025,0.054,0.04c0.151,0.138,0.305,0.219,0.452,0.263
	c0.087,0.023,0.181,0.037,0.281,0.039c0.101,0,0.196-0.017,0.285-0.04c0.146-0.043,0.297-0.125,0.448-0.261
	c0.018-0.015,0.035-0.028,0.055-0.04c0.079-0.046,1.975-1.129,3.764,0.195c0.26,0.141,0.845,0.734,1.753,3.149l2.068,5.051
	C-564.052,17.733-564.131,17.922-564.297,17.989z"/>
<g>
	
		<rect x="-713.927" y="16.074" transform="matrix(-0.7069 -0.7073 0.7073 -0.7069 -1227.4124 -476.1515)" fill="#211915" width="3.122" height="0.349"/>
	
		<rect x="-714.469" y="16.617" transform="matrix(-0.7075 -0.7067 0.7067 -0.7075 -1229.1545 -475.1532)" fill="#211915" width="3.122" height="0.346"/>
	
		<rect x="-713.388" y="15.536" transform="matrix(-0.707 -0.7072 0.7072 -0.707 -1226.2175 -476.5774)" fill="#211915" width="3.122" height="0.346"/>
	<path fill="#211915" d="M-716.506,18.182c-0.503,0.503-0.418,1.406,0.191,2.015c0.609,0.609,1.512,0.696,2.017,0.191l2.076-2.074
		l-2.208-2.208L-716.506,18.182z"/>
	<path fill="#211915" d="M-709.692,15.447c0.027-0.231-0.002-0.474-0.088-0.713c-0.084-0.236-0.205-0.469-0.405-0.668
		c-0.216-0.217-0.471-0.341-0.732-0.423c-0.218-0.069-0.435-0.087-0.642-0.063l-0.178-0.177c-0.143-0.146-0.379-0.143-0.527,0.006
		c-0.082,0.082-0.106,0.192-0.095,0.299l-0.152,0.477l2.208,2.207l0.475-0.149c0.108,0.01,0.218-0.015,0.301-0.098
		c0.148-0.146,0.151-0.383,0.008-0.525L-709.692,15.447z"/>
	<path fill="#211915" d="M-705.253,13.531c0.252-0.251,0.548-0.407,0.847-0.517l-1.788-1.689l5.667-5.996
		c0.238-0.238,0.238-0.626,0-0.867c-0.238-0.238-0.626-0.238-0.866,0l-6.066,5.667l-6.022-5.693c-0.238-0.238-0.627-0.238-0.866,0
		c-0.238,0.238-0.238,0.627,0,0.867l5.617,6.014l-1.824,1.704c0.333,0.103,0.658,0.263,0.933,0.537
		c0.252,0.252,0.407,0.549,0.517,0.848l1.64-1.733l1.675,1.793C-705.688,14.133-705.528,13.807-705.253,13.531z"/>
	
		<rect x="-704.123" y="16.103" transform="matrix(0.7068 -0.7074 0.7074 0.7068 -217.5096 -492.2337)" fill="#211915" width="3.123" height="0.347"/>
	
		<rect x="-703.581" y="16.643" transform="matrix(0.7073 -0.707 0.707 0.7073 -217.3964 -491.3709)" fill="#211915" width="3.121" height="0.349"/>
	
		<rect x="-704.663" y="15.562" transform="matrix(0.7074 -0.7068 0.7068 0.7074 -216.8359 -492.3442)" fill="#211915" width="3.121" height="0.348"/>
	<path fill="#211915" d="M-698.423,18.208l-2.074-2.076l-2.209,2.208l2.077,2.076c0.502,0.503,1.405,0.417,2.015-0.191
		C-698.006,19.615-697.918,18.712-698.423,18.208z"/>
	<path fill="#211915" d="M-702.568,13.737c0.009-0.108-0.014-0.218-0.098-0.301c-0.146-0.147-0.383-0.149-0.524-0.007l-0.173,0.173
		c-0.231-0.028-0.476,0.001-0.714,0.086c-0.237,0.086-0.468,0.206-0.668,0.405c-0.216,0.217-0.341,0.473-0.423,0.733
		c-0.07,0.218-0.087,0.435-0.063,0.643l-0.178,0.176c-0.144,0.144-0.141,0.381,0.007,0.528c0.082,0.082,0.191,0.105,0.3,0.096
		l0.477,0.15l2.206-2.207L-702.568,13.737z"/>
</g>
<g>
	<path fill="#211915" d="M-391.714,13.813l-0.277-9.797c0-0.265-0.214-0.48-0.48-0.48c-0.264,0-0.479,0.214-0.48,0.48l-0.335,9.833
		c0.242-0.127,0.511-0.22,0.815-0.22C-392.191,13.629-391.942,13.708-391.714,13.813z"/>
	<rect x="-393.726" y="16.507" fill="#211915" width="2.451" height="0.274"/>
	<rect x="-393.726" y="17.109" fill="#211915" width="2.451" height="0.272"/>
	<rect x="-393.726" y="15.91" fill="#211915" width="2.451" height="0.272"/>
	<path fill="#211915" d="M-393.726,20.016c0,0.557,0.548,1.011,1.225,1.011c0.675,0,1.227-0.454,1.227-1.014v-2.301h-2.451V20.016z"
		/>
	<path fill="#211915" d="M-391.271,14.717h-0.19c-0.113-0.144-0.266-0.263-0.443-0.348c-0.18-0.084-0.375-0.146-0.597-0.146
		c-0.24,0-0.451,0.071-0.641,0.172c-0.161,0.08-0.29,0.192-0.393,0.321h-0.196c-0.159-0.002-0.288,0.132-0.288,0.296
		c0,0.091,0.047,0.165,0.113,0.219l0.18,0.35l2.451-0.001l0.179-0.348c0.064-0.055,0.113-0.128,0.113-0.221
		C-390.982,14.849-391.111,14.717-391.271,14.717z"/>
</g>
<path fill-rule="evenodd" clip-rule="evenodd" fill="#211915" d="M-252.952,4.698h-9.009l-4.504,7.802l4.504,7.803h9.009
	l4.506-7.803L-252.952,4.698z M-250.044,12.308h-4.816l-1.141-1.976l2.434-4.126L-250.044,12.308z M-258.673,10.156l-2.386-4.17
	h7.242l-2.461,4.17H-258.673z M-253.981,19.016h-7.141l2.46-4.171h2.295L-253.981,19.016z M-261.327,6.175l2.396,4.19l-1.12,1.942
	h-4.816L-261.327,6.175z M-264.9,12.634h4.815l1.161,2.011l-2.434,4.127L-264.9,12.634z M-253.649,18.938l-2.397-4.191l1.221-2.113
	h4.815L-253.649,18.938z"/>
<circle fill-rule="evenodd" clip-rule="evenodd" fill="#211915" cx="-77.928" cy="12.832" r="3.052"/>
<path fill="#211915" d="M-72.399,13.766l3.864-0.934l-3.89-1.133l1.354-0.959l-3.922-0.533c0.499,0.692,0.805,1.612,0.805,2.625
	c0,0.903-0.244,1.732-0.65,2.393l3.792-0.449L-72.399,13.766z"/>
<path fill="#211915" d="M-83.384,13.766l-3.864-0.934l3.89-1.133l-1.354-0.959l3.922-0.533c-0.498,0.692-0.805,1.612-0.805,2.625
	c0,0.903,0.244,1.732,0.65,2.393l-3.792-0.449L-83.384,13.766z"/>
<path fill="none" d="M12.989,54.936v-2.148c-0.302-0.039-0.608-0.063-0.921-0.063c-0.353,0-0.699,0.027-1.037,0.078v2.133H9.619
	v-1.764C7,54.16,5.137,56.691,5.137,59.657c0,3.828,3.104,6.933,6.932,6.933S19,63.485,19,59.657c0-3.011-1.918-5.571-4.6-6.529
	v1.808H12.989z"/>
<g>
	<circle fill-rule="evenodd" clip-rule="evenodd" fill="#211915" cx="58.057" cy="14.221" r="2.223"/>
	<polygon fill-rule="evenodd" clip-rule="evenodd" fill="#211915" points="55.834,7.241 56.849,6.54 56.849,8.89 	"/>
	<polygon fill-rule="evenodd" clip-rule="evenodd" fill="#211915" points="60.149,7.241 59.135,6.54 59.135,8.89 	"/>
	<path fill="#211915" d="M62.339,16.555l2.911,0.556l-2.494-1.588c0.074-0.267,0.127-0.54,0.154-0.823l2.043-0.538l-2.051-0.48
		c-0.031-0.28-0.086-0.555-0.162-0.818l2.459-1.657l-2.889,0.63c-0.138-0.245-0.296-0.477-0.472-0.693l1.072-1.82l-1.794,1.102
		c-0.232-0.187-0.481-0.354-0.746-0.497l0.543-2.913l-1.438,2.282v0.951c1.632,0.583,2.8,2.141,2.8,3.974
		c0,2.329-1.89,4.22-4.219,4.22c-2.33,0-4.219-1.891-4.219-4.22c0-1.805,1.134-3.345,2.728-3.947v-0.98l-1.484-2.231l0.614,2.893
		c-0.245,0.136-0.478,0.292-0.694,0.467L53.186,9.34l1.093,1.8c-0.188,0.231-0.356,0.479-0.5,0.743l-2.911-0.559l2.492,1.588
		c-0.073,0.267-0.125,0.543-0.154,0.824l-2.043,0.536l2.049,0.482c0.031,0.28,0.087,0.555,0.164,0.819l-2.461,1.653l2.89-0.627
		c0.136,0.244,0.294,0.477,0.47,0.692l-1.072,1.821l1.794-1.103c0.232,0.188,0.48,0.355,0.744,0.499l-0.545,2.912l1.578-2.501
		c0.267,0.074,0.542,0.124,0.825,0.151l0.545,2.041l0.473-2.052c0.267-0.031,0.527-0.083,0.778-0.154l1.646,2.467l-0.616-2.892
		c0.245-0.137,0.477-0.293,0.694-0.469l1.816,1.08l-1.095-1.798C62.027,17.066,62.195,16.817,62.339,16.555z"/>
	<path fill="#211915" d="M58.058,10.001c0.19,0,0.376,0.015,0.56,0.038V9.379c-0.011-0.001-0.021-0.004-0.031-0.005L58.058,4.21
		l-0.619,5.175c-0.004,0-0.009,0.001-0.013,0.001v0.662C57.632,10.018,57.843,10.001,58.058,10.001z"/>
</g>
<g>
	<path fill-rule="evenodd" clip-rule="evenodd" fill="#211915" d="M-32.523,3.736c-4.84,0-8.763,3.923-8.763,8.763
		c0,4.839,3.923,8.764,8.763,8.764s8.765-3.925,8.765-8.764C-23.759,7.66-27.684,3.736-32.523,3.736z M-32.523,20.466
		c-4.399,0-7.966-3.565-7.966-7.966c0-4.399,3.566-7.966,7.966-7.966c4.401,0,7.967,3.567,7.967,7.966
		C-24.557,16.9-28.122,20.466-32.523,20.466z"/>
	<path fill="#211915" d="M-28.315,8.992l1.473-1.483l-1.646,1.305C-28.429,8.873-28.371,8.933-28.315,8.992z"/>
	<path fill="#211915" d="M-25.132,10.73l-1.947,0.37c0.023,0.074,0.048,0.148,0.069,0.224L-25.132,10.73z"/>
	<path fill="#211915" d="M-35.189,19.731l0.658-1.488c-0.06-0.022-0.12-0.046-0.18-0.07L-35.189,19.731z"/>
	<path fill="#211915" d="M-35.526,8.06l-1.357-1.718l1.137,1.854c0.031-0.02,0.062-0.04,0.094-0.06L-35.526,8.06z"/>
	<path fill="#211915" d="M-39.253,16.167l1.628-0.745c-0.031-0.064-0.064-0.126-0.093-0.19L-39.253,16.167z"/>
	<path fill="#211915" d="M-31.565,20.153l-0.109-1.62c-0.063,0.008-0.126,0.016-0.189,0.021L-31.565,20.153z"/>
	<path fill="#211915" d="M-29.784,19.703l-0.493-1.548c-0.059,0.024-0.119,0.049-0.179,0.071L-29.784,19.703z"/>
	<path fill="#211915" d="M-25.792,9.016l-1.855,0.85c0.042,0.068,0.082,0.138,0.121,0.208L-25.792,9.016z"/>
	<path fill="#211915" d="M-35.515,8.574l1.313,2.142l-1.773-1.378c-0.059,0.104-0.111,0.21-0.162,0.318l1.535,1.515l-1.788-0.795
		c-0.028,0.126-0.049,0.26-0.062,0.399l1.57,0.936l-1.564-0.28c0.021,0.161,0.056,0.317,0.1,0.468l1.322,0.402l-1.137,0.074
		c0.088,0.179,0.189,0.342,0.303,0.489l0.837,0.044l-0.626,0.198c0.198,0.198,0.415,0.343,0.629,0.419l0.146-0.028l-0.078,0.048
		c0.138,0.041,0.271,0.065,0.393,0.065c0.515,0,0.796-0.374,0.94-0.688c0.36-0.776,0.281-1.935-0.148-2.632l-0.25-0.316
		c-0.109-0.107-0.229-0.197-0.362-0.299c-0.092-0.07-0.187-0.143-0.288-0.226l-0.143-0.121l0.122-0.142
		c0.009-0.01,0.017-0.02,0.024-0.03l-0.682-0.865l-0.058,0.098C-35.438,8.45-35.478,8.511-35.515,8.574z"/>
	<path fill="#211915" d="M-36.59,8.859l-1.663-1.292l1.489,1.471C-36.707,8.976-36.649,8.917-36.59,8.859z"/>
	<path fill="#211915" d="M-38.202,17.673l1.344-1.065c-0.044-0.052-0.088-0.103-0.13-0.156L-38.202,17.673z"/>
	<path fill="#211915" d="M-39.289,9.083l1.753,1.044c0.038-0.071,0.076-0.142,0.117-0.211L-39.289,9.083z"/>
	<path fill="#211915" d="M-39.932,10.805l1.904,0.58c0.02-0.077,0.04-0.153,0.063-0.228L-39.932,10.805z"/>
	<path fill="#211915" d="M-39.914,14.453l1.824-0.346c-0.016-0.073-0.032-0.144-0.046-0.216L-39.914,14.453z"/>
	<path fill="#211915" d="M-38.232,12.506l-1.912,0.124l1.907,0.103v-0.193C-38.235,12.528-38.234,12.518-38.232,12.506z"/>
	<path fill="#211915" d="M-33.312,18.546l-0.092,1.617l0.282-1.599c-0.014,0-0.028-0.002-0.041-0.002
		C-33.213,18.559-33.262,18.552-33.312,18.546z"/>
	<path fill="#211915" d="M-36.821,18.886l1.017-1.314c-0.053-0.037-0.106-0.076-0.159-0.115L-36.821,18.886z"/>
	<path fill="#211915" d="M-33.479,5.03l0.162,2.43c0.079-0.1,0.158-0.199,0.237-0.295L-33.479,5.03z"/>
	<path fill="#211915" d="M-31.643,5.021l-0.364,2.065c0.076,0.093,0.154,0.188,0.231,0.289L-31.643,5.021z"/>
	<polygon fill="#211915" points="-24.901,12.553 -26.81,12.45 -26.81,12.676 	"/>
	<path fill="#211915" d="M-26.792,17.616l-1.234-1.217c-0.041,0.054-0.083,0.107-0.125,0.161L-26.792,17.616z"/>
	<path fill="#211915" d="M-30.261,9.402l-0.13,0.093c-0.062,0.043-0.121,0.084-0.182,0.125c-0.156,0.104-0.301,0.203-0.417,0.322
		c-0.459,0.471-0.738,1.404-0.665,2.218c0.052,0.561,0.264,1.003,0.602,1.242c0.205,0.146,0.418,0.22,0.634,0.22
		c0.129,0,0.255-0.028,0.378-0.075l-0.123-0.074l0.212,0.037c0.204-0.094,0.397-0.245,0.571-0.432l-0.641-0.195l0.85-0.055
		c0.111-0.152,0.212-0.317,0.298-0.49l-1.15-0.062l1.343-0.424c0.047-0.157,0.082-0.314,0.099-0.466l-1.59,0.303l1.591-0.972
		c-0.014-0.135-0.038-0.267-0.069-0.391l-1.808,0.827l1.538-1.549c-0.053-0.108-0.108-0.212-0.165-0.314l-1.777,1.41l1.327-2.213
		c-0.026-0.052-0.055-0.103-0.077-0.154l-0.068-0.148l-0.73,0.944c0.025,0.044,0.054,0.088,0.078,0.134L-30.261,9.402z"/>
	<path fill="#211915" d="M-25.757,16.099l-1.556-0.927c-0.029,0.066-0.059,0.132-0.088,0.194L-25.757,16.099z"/>
	<path fill="#211915" d="M-25.114,14.379l-1.771-0.54c-0.015,0.072-0.031,0.143-0.048,0.213L-25.114,14.379z"/>
	<path fill="#211915" d="M-28.162,18.843l-0.868-1.417c-0.052,0.04-0.104,0.08-0.157,0.118L-28.162,18.843z"/>
	<path fill="#211915" d="M-29.318,8.122l1.094-1.824l-1.299,1.679l0.183,0.128C-29.334,8.111-29.325,8.117-29.318,8.122z"/>
	<path fill="#211915" d="M-33.979,8.368l0.047,0.034l-1.328-2.923l1.009,3.168c0.052-0.061,0.104-0.12,0.162-0.174L-33.979,8.368z"
		/>
	<path fill="#211915" d="M-31.003,8.435l0.081,0.074c0.034,0.031,0.065,0.062,0.098,0.094l0.969-3.15l-1.362,3.075
		c0.036-0.02,0.072-0.04,0.111-0.055L-31.003,8.435z"/>
	<path fill-rule="evenodd" clip-rule="evenodd" fill="#211915" d="M-38.074,12.567c0.197-2.024,1.184-3.463,2.494-4.245
		c-0.468,0.787-1.048,1.527-1.092,2.648c-0.05,1.292,0.744,2.483,1.597,2.764c1.964,0.647,2.307-2.529,1.286-3.738
		c-0.223-0.261-0.481-0.414-0.778-0.663c0.198-0.228,0.362-0.493,0.582-0.7c0.369,0.268,0.593,0.681,0.935,0.974
		c-0.074-0.6-0.262-1.086-0.504-1.52c0.313-0.451,0.667-0.862,1.011-1.284c0.385,0.408,0.729,0.856,1.052,1.323
		c-0.287,0.362-0.443,0.855-0.506,1.441c0.3-0.154,0.504-0.741,0.935-0.895c0.219,0.195,0.403,0.426,0.545,0.699
		c-0.214,0.154-0.448,0.286-0.623,0.467c-0.83,0.853-1.089,2.991-0.04,3.739c1.295,0.92,2.631-0.859,2.767-2.181
		c0.146-1.431-0.68-2.3-1.052-3.116c1.275,0.894,2.19,2.145,2.453,4.05c0,0.376,0,0.752,0,1.128
		c-0.477,2.876-2.596,5.259-6.152,4.946c-1.334-0.115-2.571-0.825-3.35-1.636c-0.823-0.856-1.427-2.084-1.559-3.544
		C-38.074,13.008-38.074,12.789-38.074,12.567z"/>
</g>
<g>
	<path fill-rule="evenodd" clip-rule="evenodd" fill="#211915" d="M-167.257,3.926c-4.793,0-8.678,3.885-8.678,8.677
		c0,4.793,3.885,8.678,8.678,8.678c4.792,0,8.677-3.885,8.677-8.678C-158.58,7.811-162.465,3.926-167.257,3.926z M-167.257,20.492
		c-4.356,0-7.889-3.533-7.889-7.89c0-4.357,3.532-7.888,7.889-7.888c4.355,0,7.888,3.531,7.888,7.888
		C-159.369,16.959-162.901,20.492-167.257,20.492z"/>
	<polygon fill-rule="evenodd" clip-rule="evenodd" fill="#211915" points="-163.792,18.791 -163.921,19.03 -163.745,19.235 
		-163.977,19.376 -163.926,19.643 -164.195,19.648 -164.286,19.903 -164.522,19.775 -164.728,19.95 -164.87,19.72 -165.135,19.771 
		-165.143,19.499 -165.398,19.41 -165.268,19.173 -165.444,18.967 -165.214,18.826 -165.264,18.561 -164.993,18.554 
		-164.904,18.299 -164.666,18.428 -164.461,18.251 -164.32,18.481 -164.054,18.432 -164.048,18.703 	"/>
	<polygon fill-rule="evenodd" clip-rule="evenodd" fill="#211915" points="-166.477,19.229 -166.565,19.483 -166.359,19.658 
		-166.563,19.835 -166.473,20.09 -166.738,20.14 -166.786,20.405 -167.041,20.316 -167.215,20.523 -167.392,20.317 -167.646,20.409 
		-167.695,20.144 -167.963,20.097 -167.873,19.841 -168.08,19.667 -167.875,19.49 -167.967,19.236 -167.699,19.186 -167.653,18.92 
		-167.398,19.009 -167.224,18.802 -167.047,19.007 -166.794,18.916 -166.742,19.182 	"/>
	<polygon fill-rule="evenodd" clip-rule="evenodd" fill="#211915" points="-169.201,18.614 -169.27,18.876 -169.048,19.031 
		-169.235,19.226 -169.122,19.471 -169.384,19.544 -169.407,19.813 -169.669,19.746 -169.824,19.967 -170.018,19.779 
		-170.264,19.894 -170.337,19.634 -170.605,19.61 -170.539,19.347 -170.762,19.192 -170.572,18.998 -170.687,18.753 -170.426,18.68 
		-170.402,18.41 -170.14,18.476 -169.984,18.255 -169.791,18.443 -169.545,18.33 -169.473,18.591 	"/>
	<polygon fill-rule="evenodd" clip-rule="evenodd" fill="#211915" points="-171.572,17.093 -171.59,17.362 -171.344,17.476 
		-171.495,17.7 -171.339,17.92 -171.582,18.04 -171.557,18.31 -171.827,18.29 -171.939,18.535 -172.165,18.386 -172.385,18.541 
		-172.504,18.299 -172.774,18.325 -172.756,18.054 -173.001,17.94 -172.85,17.717 -173.006,17.496 -172.764,17.377 -172.789,17.107 
		-172.519,17.127 -172.406,16.88 -172.181,17.03 -171.96,16.874 -171.841,17.118 	"/>
	<polygon fill-rule="evenodd" clip-rule="evenodd" fill="#211915" points="-173.224,14.756 -173.206,15.025 -172.946,15.105 
		-173.065,15.349 -172.88,15.545 -173.104,15.697 -173.044,15.959 -173.314,15.978 -173.393,16.236 -173.635,16.118 
		-173.832,16.304 -173.982,16.078 -174.247,16.14 -174.266,15.869 -174.524,15.79 -174.404,15.548 -174.59,15.352 -174.366,15.2 
		-174.428,14.936 -174.156,14.918 -174.078,14.659 -173.835,14.779 -173.638,14.593 -173.486,14.818 	"/>
	<polygon fill-rule="evenodd" clip-rule="evenodd" fill="#211915" points="-173.923,12.003 -173.865,12.268 -173.597,12.308 
		-173.68,12.563 -173.466,12.733 -173.666,12.916 -173.567,13.167 -173.832,13.225 -173.871,13.492 -174.129,13.41 -174.297,13.623 
		-174.479,13.422 -174.731,13.522 -174.789,13.259 -175.057,13.219 -174.974,12.961 -175.186,12.793 -174.986,12.61 
		-175.087,12.359 -174.822,12.301 -174.783,12.034 -174.524,12.114 -174.356,11.903 -174.174,12.104 	"/>
	<polygon fill-rule="evenodd" clip-rule="evenodd" fill="#211915" points="-173.475,9.348 -173.406,9.61 -173.138,9.64 -173.21,9.9 
		-172.991,10.06 -173.184,10.25 -173.074,10.498 -173.337,10.565 -173.366,10.834 -173.626,10.763 -173.785,10.981 -173.976,10.789 
		-174.223,10.898 -174.291,10.636 -174.561,10.607 -174.488,10.346 -174.707,10.187 -174.515,9.996 -174.624,9.749 -174.361,9.681 
		-174.333,9.412 -174.071,9.484 -173.912,9.266 -173.722,9.458 	"/>
	<polygon fill-rule="evenodd" clip-rule="evenodd" fill="#211915" points="-172.139,6.977 -172.021,7.22 -171.753,7.196 
		-171.771,7.466 -171.525,7.58 -171.677,7.804 -171.521,8.025 -171.766,8.144 -171.74,8.413 -172.011,8.393 -172.125,8.639 
		-172.349,8.487 -172.569,8.643 -172.688,8.399 -172.958,8.423 -172.938,8.153 -173.184,8.04 -173.032,7.815 -173.187,7.594 
		-172.944,7.477 -172.969,7.207 -172.698,7.226 -172.584,6.98 -172.36,7.133 	"/>
	<polygon fill-rule="evenodd" clip-rule="evenodd" fill="#211915" points="-170.035,5.451 -169.894,5.682 -169.628,5.632 
		-169.622,5.903 -169.367,5.993 -169.496,6.23 -169.321,6.436 -169.552,6.577 -169.502,6.843 -169.773,6.848 -169.863,7.104 
		-170.1,6.974 -170.307,7.149 -170.446,6.918 -170.712,6.968 -170.718,6.697 -170.975,6.607 -170.845,6.371 -171.02,6.165 
		-170.789,6.024 -170.839,5.758 -170.567,5.752 -170.477,5.497 -170.239,5.627 	"/>
	<polygon fill-rule="evenodd" clip-rule="evenodd" fill="#211915" points="-167.437,4.826 -167.259,5.029 -167.004,4.935 
		-166.953,5.2 -166.686,5.245 -166.772,5.5 -166.563,5.673 -166.769,5.852 -166.673,6.105 -166.938,6.158 -166.984,6.424 
		-167.239,6.337 -167.412,6.546 -167.591,6.343 -167.845,6.437 -167.896,6.172 -168.163,6.126 -168.075,5.871 -168.285,5.698 
		-168.08,5.519 -168.175,5.267 -167.91,5.214 -167.865,4.947 -167.608,5.034 	"/>
	<polygon fill-rule="evenodd" clip-rule="evenodd" fill="#211915" points="-164.911,5.327 -164.709,5.506 -164.469,5.381 
		-164.385,5.639 -164.113,5.649 -164.168,5.915 -163.94,6.061 -164.119,6.261 -163.995,6.501 -164.251,6.587 -164.263,6.857 
		-164.528,6.803 -164.673,7.031 -164.876,6.851 -165.115,6.977 -165.199,6.72 -165.471,6.708 -165.417,6.443 -165.644,6.297 
		-165.464,6.096 -165.59,5.856 -165.332,5.771 -165.32,5.5 -165.056,5.555 	"/>
	<polygon fill-rule="evenodd" clip-rule="evenodd" fill="#211915" points="-162.707,6.8 -162.483,6.951 -162.262,6.793 
		-162.143,7.036 -161.874,7.009 -161.891,7.28 -161.644,7.391 -161.793,7.616 -161.637,7.836 -161.879,7.956 -161.853,8.226 
		-162.123,8.208 -162.234,8.455 -162.46,8.305 -162.68,8.462 -162.801,8.22 -163.069,8.246 -163.053,7.976 -163.297,7.864 
		-163.148,7.639 -163.305,7.419 -163.063,7.299 -163.09,7.03 -162.82,7.047 	"/>
	<polygon fill-rule="evenodd" clip-rule="evenodd" fill="#211915" points="-161.226,9.077 -160.992,9.212 -160.782,9.043 
		-160.647,9.277 -160.381,9.234 -160.381,9.504 -160.127,9.601 -160.264,9.835 -160.093,10.045 -160.326,10.179 -160.283,10.446 
		-160.554,10.446 -160.651,10.699 -160.886,10.563 -161.096,10.734 -161.229,10.5 -161.496,10.543 -161.496,10.272 -161.748,10.176 
		-161.613,9.942 -161.784,9.732 -161.551,9.597 -161.594,9.33 -161.323,9.33 	"/>
	<polygon fill-rule="evenodd" clip-rule="evenodd" fill="#211915" points="-160.779,11.8 -160.523,11.885 -160.354,11.675 
		-160.173,11.876 -159.92,11.779 -159.865,12.045 -159.598,12.087 -159.682,12.344 -159.473,12.515 -159.673,12.695 
		-159.576,12.947 -159.842,13.002 -159.885,13.271 -160.142,13.185 -160.311,13.395 -160.492,13.193 -160.744,13.29 -160.8,13.025 
		-161.067,12.982 -160.981,12.727 -161.191,12.555 -160.99,12.375 -161.087,12.122 -160.822,12.068 	"/>
	<polygon fill-rule="evenodd" clip-rule="evenodd" fill="#211915" points="-161.368,14.561 -161.103,14.614 -160.96,14.385 
		-160.755,14.562 -160.518,14.435 -160.431,14.691 -160.159,14.7 -160.212,14.965 -159.981,15.109 -160.16,15.312 -160.032,15.551 
		-160.288,15.639 -160.297,15.908 -160.563,15.856 -160.705,16.086 -160.91,15.908 -161.147,16.036 -161.236,15.779 
		-161.506,15.771 -161.453,15.505 -161.684,15.362 -161.505,15.158 -161.634,14.92 -161.377,14.832 	"/>
	<polygon fill-rule="evenodd" clip-rule="evenodd" fill="#211915" points="-162.884,16.903 -162.613,16.922 -162.501,16.676 
		-162.275,16.826 -162.055,16.669 -161.937,16.912 -161.666,16.886 -161.685,17.157 -161.438,17.268 -161.589,17.493 
		-161.432,17.714 -161.675,17.834 -161.649,18.104 -161.919,18.086 -162.031,18.33 -162.256,18.181 -162.478,18.338 
		-162.598,18.096 -162.867,18.121 -162.849,17.85 -163.094,17.738 -162.943,17.513 -163.101,17.292 -162.858,17.173 	"/>
	<path fill-rule="evenodd" clip-rule="evenodd" fill="#211915" d="M-172.886,12.482c0.2-2.062,1.204-3.527,2.536-4.321
		c-0.475,0.801-1.064,1.554-1.108,2.695c-0.052,1.315,0.755,2.527,1.625,2.813c1.998,0.66,2.348-2.573,1.307-3.803
		c-0.224-0.266-0.489-0.421-0.792-0.675c0.203-0.233,0.37-0.502,0.595-0.712c0.375,0.272,0.603,0.692,0.951,0.99
		c-0.077-0.61-0.268-1.105-0.516-1.546c0.319-0.46,0.681-0.878,1.031-1.308c0.39,0.416,0.741,0.871,1.069,1.348
		c-0.293,0.368-0.451,0.87-0.515,1.466c0.306-0.157,0.514-0.753,0.95-0.91c0.224,0.199,0.41,0.435,0.556,0.712
		c-0.219,0.156-0.455,0.292-0.635,0.475c-0.843,0.869-1.108,3.045-0.04,3.806c1.318,0.938,2.677-0.874,2.814-2.219
		c0.148-1.457-0.69-2.342-1.069-3.171c1.296,0.91,2.229,2.182,2.497,4.121c0,0.384,0,0.767,0,1.148
		c-0.485,2.929-2.643,5.353-6.264,5.034c-1.355-0.119-2.614-0.839-3.408-1.665c-0.837-0.872-1.451-2.122-1.585-3.605
		C-172.886,12.93-172.886,12.706-172.886,12.482z"/>
</g>
<g>
	<path fill-rule="evenodd" clip-rule="evenodd" fill="#211915" d="M-121.205,8.523l-0.91-0.061c-0.031-0.52-0.167-0.595-0.167-0.595
		v0.874v0.874c0,0,0.136-0.075,0.167-0.596l0.91-0.06c0,0-0.476-0.054-0.65-0.218C-121.681,8.577-121.205,8.523-121.205,8.523z"/>
	<path fill-rule="evenodd" clip-rule="evenodd" fill="#211915" d="M-123.563,8.523l0.912-0.061c0.031-0.52,0.165-0.595,0.165-0.595
		v0.874v0.874c0,0-0.134-0.075-0.165-0.596l-0.912-0.06c0,0,0.477-0.054,0.65-0.218C-123.087,8.577-123.563,8.523-123.563,8.523z"/>
	<path fill-rule="evenodd" clip-rule="evenodd" fill="#211915" d="M-119.887,14.973v-2.238c0,0-0.067-0.521,0.407-0.928
		c0.475-0.406,1.853-1.377,1.763-2.757c-0.09-1.379-0.481-2.328-2.173-3.3c0,0,2.602,0.633,3.37,3.3c0,0,0.905,2.193-0.699,4.476
		C-117.219,13.525-118.305,15.04-119.887,14.973z"/>
	<path fill-rule="evenodd" clip-rule="evenodd" fill="#211915" d="M-119.883,16.686c0,0-0.343-0.083-0.274-0.357l0.268-0.678
		c0,0,0.185-0.498,0.999-0.588c0,0,1.818-0.255,2.417-1.786c0,0,1.085-1.604,0.543-3.978c0,0,0.813,0.932,0.746,3.676
		c0,0-0.137,2.743-3.052,3.783C-118.236,16.758-119.056,16.938-119.883,16.686z"/>
	<path fill-rule="evenodd" clip-rule="evenodd" fill="#211915" d="M-124.895,14.973v-2.238c0,0,0.067-0.521-0.408-0.928
		c-0.475-0.406-1.853-1.377-1.762-2.757c0.09-1.379,0.48-2.328,2.172-3.3c0,0-2.602,0.633-3.37,3.3c0,0-0.905,2.193,0.701,4.476
		C-127.562,13.525-126.478,15.04-124.895,14.973z"/>
	<path fill-rule="evenodd" clip-rule="evenodd" fill="#211915" d="M-124.899,16.686c0,0,0.343-0.083,0.274-0.357l-0.268-0.678
		c0,0-0.184-0.498-0.997-0.588c0,0-1.819-0.255-2.418-1.786c0,0-1.085-1.604-0.543-3.978c0,0-0.813,0.932-0.746,3.676
		c0,0,0.136,2.743,3.051,3.783C-126.546,16.758-125.726,16.938-124.899,16.686z"/>
	<path fill="#211915" d="M-118.327,17.097c0,0-0.685-0.007-1.296-0.105c0,0-0.591-0.109-0.885,0.427c0,0-0.357,0.696-0.389,0.847
		c0,0-1.092-0.58-1.193-4.016l-0.102,4.476c0,0-0.047,0.158-0.153,0.186c-0.105-0.027-0.152-0.186-0.152-0.186l-0.038-0.868l0,0
		l-0.086-7.42c-0.022-0.248-0.403-0.384-0.403-0.384c-0.297-0.135-0.456-0.346-0.456-0.346c-0.919-0.814-0.083-2.004-0.083-2.004
		c-0.956,0.995-0.972,2.292-0.972,2.292c1.07,0.15,1.511,2.063,1.511,2.063l-0.048,3.451c-0.138,1.764-0.403,2.386-0.553,2.601
		c-0.1,0.118-0.168,0.157-0.168,0.157c-0.03-0.15-0.387-0.847-0.387-0.847c-0.295-0.536-0.887-0.427-0.887-0.427
		c-0.609,0.099-1.296,0.105-1.296,0.105c-1.74-0.212-2.637-1.567-2.637-1.567c0.683,1.951,1.79,2.482,1.79,2.482
		c0.881,0.587,2.072,0,2.072,0c-0.287,0.502-1.113,0.758-1.113,0.758c1.37,0.875,2.688,1.178,3.844,1.192v0.002
		c0.021,0,0.04-0.001,0.062-0.002c0.021,0.001,0.042,0.002,0.063,0.002v-0.002c1.156-0.015,2.474-0.317,3.843-1.192
		c0,0-0.824-0.256-1.113-0.758c0,0,1.191,0.587,2.074,0c0,0,1.106-0.531,1.789-2.482C-115.689,15.529-116.586,16.885-118.327,17.097
		z"/>
	<g>
		<path fill="#211915" d="M-122.418,21.558c-4.811,0-8.727-3.916-8.727-8.727c0-4.812,3.916-8.727,8.727-8.727
			c4.813,0,8.727,3.915,8.727,8.727C-113.691,17.642-117.605,21.558-122.418,21.558z M-122.418,4.646
			c-4.512,0-8.184,3.672-8.184,8.185c0,4.512,3.672,8.184,8.184,8.184c4.513,0,8.185-3.672,8.185-8.184
			C-114.233,8.318-117.905,4.646-122.418,4.646z"/>
	</g>
</g>
<g>
	<polygon fill-rule="evenodd" clip-rule="evenodd" fill="#211915" points="12.636,5.104 15.555,6.775 15.938,6.103 12.501,4.118 
		9.034,6.119 9.494,6.905 	"/>
	<polygon fill-rule="evenodd" clip-rule="evenodd" fill="#211915" points="5.894,16.693 5.894,13.097 5.039,13.097 5.039,17.04 
		8.533,19.059 8.9,18.416 	"/>
	<polygon fill-rule="evenodd" clip-rule="evenodd" fill="#211915" points="12.636,20.558 9.486,18.751 9.118,19.396 12.501,21.349 
		15.978,19.341 15.671,18.817 	"/>
	<polygon fill-rule="evenodd" clip-rule="evenodd" fill="#211915" points="5.894,8.967 8.909,7.24 8.451,6.457 5.039,8.426 
		5.039,12.421 5.894,12.421 	"/>
	<polygon fill-rule="evenodd" clip-rule="evenodd" fill="#211915" points="19.38,8.967 19.38,12.421 19.961,12.421 19.961,8.426 
		16.524,6.441 16.142,7.112 	"/>
	<polygon fill-rule="evenodd" clip-rule="evenodd" fill="#211915" points="19.38,16.693 16.258,18.482 16.563,19.003 19.961,17.04 
		19.961,13.097 19.38,13.097 	"/>
	<polygon fill="#211915" points="18.434,13.691 18.005,13.711 18.005,14.919 14.989,13.574 15.023,13.631 15.023,11.99 
		17.989,10.651 18.039,11.888 18.423,11.881 18.476,9.358 16.254,8.204 16.06,8.586 17.11,9.181 14.522,11.087 13.136,10.293 
		13.477,7.104 14.568,7.687 14.757,7.353 12.607,6.031 10.487,7.363 10.719,7.724 11.764,7.119 12.094,10.259 10.654,11.083 
		8.116,9.226 9.167,8.574 8.973,8.243 6.751,9.44 6.841,11.942 7.269,11.923 7.269,10.715 10.147,12.003 10.147,13.69 7.284,14.982 
		7.235,13.746 6.851,13.753 6.798,16.276 9.02,17.431 9.215,17.048 8.164,16.453 10.774,14.531 10.771,14.525 12.141,15.31 
		11.798,18.529 10.706,17.947 10.518,18.281 12.667,19.604 14.786,18.271 14.555,17.91 13.511,18.515 13.159,15.174 13.067,15.288 
		14.52,14.457 14.511,14.471 17.158,16.408 16.107,17.06 16.302,17.391 18.523,16.193 	"/>
</g>
<g>
	<path fill-rule="evenodd" clip-rule="evenodd" fill="#211915" d="M-212.417,3.506c-5.012,0-9.076,4.063-9.076,9.077
		c0,5.012,4.064,9.077,9.076,9.077c5.013,0,9.077-4.065,9.077-9.077C-203.34,7.57-207.404,3.506-212.417,3.506z M-212.417,20.81
		c-4.542,0-8.226-3.684-8.226-8.227c0-4.542,3.684-8.226,8.226-8.226c4.544,0,8.226,3.684,8.226,8.226
		C-204.191,17.126-207.873,20.81-212.417,20.81z"/>
	<path fill-rule="evenodd" clip-rule="evenodd" fill="#211915" d="M-217.508,8.659l-0.681-0.682
		c-0.849,1.061-1.409,2.359-1.567,3.779h0.965C-218.643,10.598-218.188,9.538-217.508,8.659z"/>
	<path fill-rule="evenodd" clip-rule="evenodd" fill="#211915" d="M-213.173,6.2V5.234c-1.414,0.145-2.707,0.688-3.771,1.515
		l0.683,0.68C-215.38,6.771-214.323,6.333-213.173,6.2z"/>
	<path fill-rule="evenodd" clip-rule="evenodd" fill="#211915" d="M-208.439,7.534l0.682-0.681
		c-1.029-0.838-2.286-1.403-3.666-1.588V6.23C-210.309,6.403-209.287,6.864-208.439,7.534z"/>
	<path fill-rule="evenodd" clip-rule="evenodd" fill="#211915" d="M-206.041,11.755h0.964c-0.152-1.362-0.675-2.611-1.463-3.646
		l-0.685,0.684C-206.602,9.645-206.183,10.657-206.041,11.755z"/>
	<path fill-rule="evenodd" clip-rule="evenodd" fill="#211915" d="M-211.424,18.937V19.9c1.355-0.182,2.594-0.731,3.613-1.545
		l-0.682-0.682C-209.33,18.321-210.331,18.766-211.424,18.937z"/>
	<path fill-rule="evenodd" clip-rule="evenodd" fill="#211915" d="M-218.778,13.505h-0.966c0.175,1.407,0.745,2.691,1.598,3.737
		l0.681-0.682C-218.148,15.695-218.615,14.648-218.778,13.505z"/>
	<path fill-rule="evenodd" clip-rule="evenodd" fill="#211915" d="M-216.207,17.774l-0.684,0.685
		c1.055,0.804,2.327,1.331,3.718,1.472v-0.965C-214.299,18.834-215.335,18.412-216.207,17.774z"/>
	<path fill-rule="evenodd" clip-rule="evenodd" fill="#211915" d="M-206.055,13.505c-0.155,1.085-0.581,2.084-1.209,2.922
		l0.683,0.683c0.793-1.021,1.323-2.257,1.492-3.604H-206.055z"/>
	<path fill-rule="evenodd" clip-rule="evenodd" fill="#211915" d="M-206.933,13.104v-1.088h-2.898
		c-0.066-0.301-0.185-0.583-0.344-0.834l2.048-2.048l-0.769-0.769l-2.031,2.031c-0.255-0.175-0.542-0.303-0.851-0.379V7.17h-1.089
		v2.807c-0.333,0.056-0.645,0.177-0.925,0.346l-1.958-1.958l-0.769,0.769l1.934,1.933c-0.198,0.281-0.342,0.603-0.418,0.95h-2.709
		v1.088h2.7c0.069,0.354,0.21,0.682,0.406,0.969l-1.913,1.913l0.769,0.771l1.93-1.931c0.285,0.179,0.608,0.305,0.953,0.363v2.761
		h1.089v-2.801c0.318-0.078,0.615-0.215,0.878-0.398l2.004,2.006l0.769-0.771l-2.029-2.028c0.158-0.26,0.272-0.547,0.336-0.854
		H-206.933z"/>
</g>
</svg>
