<?xml version="1.0" encoding="utf-8"?>
<!-- Generator: Adobe Illustrator 15.1.0, SVG Export Plug-In . SVG Version: 6.00 Build 0)  -->
<!DOCTYPE svg PUBLIC "-//W3C//DTD SVG 1.1//EN" "http://www.w3.org/Graphics/SVG/1.1/DTD/svg11.dtd">
<svg version="1.1" id="Camada_1" xmlns="http://www.w3.org/2000/svg" xmlns:xlink="http://www.w3.org/1999/xlink" x="0px" y="0px"
	 width="25px" height="25px" viewBox="0 0 25 25" enable-background="new 0 0 25 25" xml:space="preserve">
<g>
	<path fill="#211915" d="M289.459,6.349c0-1.398-1.927-2.849-3.325-2.849h-7.304c-1.399,0-3.326,1.451-3.326,2.849v1.037h13.955
		V6.349z"/>
	<path fill="#211915" d="M291.49,14.555c0-1.555-1.388-2.129-1.388-2.129s0-2.21,0-3.032s-0.645-0.753-0.645-0.753V8.017h-7.228l0,0
		l-6.7,0.004l-0.006,0.619c0,0-0.644-0.069-0.644,0.753s0,3.032,0,3.032s-1.39,0.575-1.39,2.129c0,1.557,1.971,3.029,1.971,3.029
		s-0.159,1.586,1.188,2.588c1.349,1.006,3.307,0.557,3.94-0.078c0,0,0-1.768,0-1.957c0-0.191,0.013-0.611,0.548-0.633
		c0.594-0.021,0.628,0.502,0.628,0.502s-0.015-0.814,0.725-0.814c0.738,0,0.724,0.814,0.724,0.814s0.023-0.502,0.546-0.502
		c0.535,0,0.631,0.438,0.631,0.633s0,1.957,0,1.957c0.635,0.635,2.592,1.084,3.94,0.078c1.349-1.002,1.189-2.588,1.189-2.588
		S291.49,16.111,291.49,14.555z M278.396,19.486c-0.541,0-0.978-0.438-0.978-0.977c0-0.541,0.437-0.979,0.978-0.979
		s0.979,0.438,0.979,0.979C279.376,19.049,278.938,19.486,278.396,19.486z M277.947,14.764c0,0,0.688-0.027,1.381-0.414v0.625
		C278.778,15.059,278.216,15.02,277.947,14.764z M281.191,14.213c-0.313,0.156-0.61,0.342-0.925,0.49
		c-0.091,0.045-0.194,0.084-0.303,0.121v-0.938c0.383-0.309,0.798-0.58,1.228-0.777V14.213z M278.674,11.692
		c-0.872,0.476-1.493-0.238-1.652-0.806c-0.158-0.568-0.238-1.598-0.238-1.598h4.998C281.317,9.763,279.546,11.216,278.674,11.692z
		 M283.109,13.924c-0.201-0.027-0.424-0.033-0.72-0.033c-0.201,0-0.386,0.029-0.563,0.074v-1.086
		c0.237-0.063,0.479-0.098,0.72-0.098c0.197,0,0.385,0.025,0.563,0.066V13.924z M285.04,14.781
		c-0.245-0.082-0.495-0.197-0.748-0.355c-0.214-0.133-0.389-0.232-0.548-0.309v-1.043c0.422,0.201,0.79,0.473,1.123,0.699
		c0.051,0.033,0.11,0.07,0.173,0.109V14.781z M286.587,19.486c-0.54,0-0.979-0.438-0.979-0.977c0-0.541,0.439-0.979,0.979-0.979
		c0.539,0,0.979,0.438,0.979,0.979C287.565,19.049,287.126,19.486,286.587,19.486z M285.675,14.941v-0.703
		c0.604,0.316,1.255,0.604,1.374,0.604c0.179,0,0.218,0.258-0.496,0.199C286.267,15.018,285.973,14.992,285.675,14.941z
		 M287.961,10.886c-0.159,0.568-0.78,1.282-1.652,0.806c-0.872-0.476-2.645-1.929-3.106-2.404h4.997
		C288.199,9.288,288.12,10.317,287.961,10.886z"/>
	<path fill="#211915" d="M281.168,17.635c-0.264,0-0.477,0.215-0.477,0.477v2.221c0,0.262,0.213,0.475,0.477,0.475
		c0.263,0,0.477-0.213,0.477-0.475v-2.221C281.645,17.85,281.431,17.635,281.168,17.635z"/>
	<path fill="#211915" d="M283.785,17.635c-0.263,0-0.477,0.215-0.477,0.477v2.221c0,0.262,0.214,0.475,0.477,0.475
		c0.264,0,0.477-0.213,0.477-0.475v-2.221C284.262,17.85,284.049,17.635,283.785,17.635z"/>
	<path fill="#211915" d="M282.486,17.328c-0.328,0-0.595,0.268-0.595,0.594v2.984c0,0.328,0.267,0.594,0.595,0.594
		s0.595-0.266,0.595-0.594v-2.984C283.081,17.596,282.814,17.328,282.486,17.328z"/>
</g>
<g>
	<path fill="#211915" d="M107.085,9.368h-9.189l-0.046,9.174l1.3,1.3h6.692l1.243-1.243V9.368z M104.484,14.569h-3.988
		c-0.368,0-0.668-0.299-0.668-0.668c0-0.37,0.3-0.669,0.668-0.669h3.988c0.37,0,0.669,0.299,0.669,0.669
		C105.153,14.271,104.854,14.569,104.484,14.569z M104.484,11.938h-3.988c-0.368,0-0.668-0.299-0.668-0.668
		c0-0.37,0.3-0.668,0.668-0.668h3.988c0.37,0,0.669,0.299,0.669,0.668C105.153,11.639,104.854,11.938,104.484,11.938z"/>
	<path fill="#211915" d="M107.16,7.799c0-2.558-2.073-4.633-4.631-4.633c-2.559,0-4.638,2.075-4.638,4.633c0,0.233,0,0.619,0,0.849
		h9.271C107.163,8.417,107.16,8.032,107.16,7.799z M102.502,6.819c-0.728,0-1.316-0.589-1.316-1.316
		c0-0.727,0.589-1.315,1.316-1.315c0.726,0,1.314,0.588,1.314,1.315C103.816,6.23,103.228,6.819,102.502,6.819z M105.153,7.785
		c-0.362,0-0.658-0.295-0.658-0.657c0-0.363,0.296-0.658,0.658-0.658c0.363,0,0.658,0.294,0.658,0.658
		C105.812,7.49,105.517,7.785,105.153,7.785z"/>
	<path fill="#211915" d="M110.396,18.53c0,0,0-6.333,0-7.744c0-1.412-1.247-1.48-1.247-1.48h-1.363l-0.007,9.251l-1.37,3.275h5.289
		L110.396,18.53z"/>
	<path fill="#211915" d="M97.214,9.307h-1.362c0,0-1.248,0.068-1.248,1.48c0,1.411,0,7.744,0,7.744l-1.302,3.303h5.29l-1.371-3.275
		L97.214,9.307z"/>
</g>
<g>
	<path fill-rule="evenodd" clip-rule="evenodd" fill="#211915" d="M237.667,10.032c0.695,0.71,0.175,2.637,1.076,3.141
		c-0.006-1.71-0.125-3.621-0.358-5.294c-0.151-1.09-0.489-2.058-0.538-3.143c-0.119,0-0.239,0-0.359,0
		c-0.512,2.6-0.973,5.25-0.897,8.437C237.498,12.676,236.87,10.64,237.667,10.032z"/>
	<path fill-rule="evenodd" clip-rule="evenodd" fill="#211915" d="M234.796,14.519c0.217-1.009,0.791-1.661,1.614-2.063
		c-0.069-0.938,0.13-1.606,0.09-2.513c-0.364,0.024-0.608,0.168-0.897,0.269c0.111,0.337,0.367,1.078,0,1.346
		c-0.715,0.088-0.785-0.472-1.166-0.719c-0.276,0.443-0.78,0.656-0.987,1.167c0.423,0.116,0.599,0.479,0.717,0.898
		c-0.153,0.46-1.029,0.251-1.345,0.089c-0.104,0.494-0.346,0.852-0.359,1.436C233.169,14.688,233.993,14.758,234.796,14.519z"/>
	<path fill-rule="evenodd" clip-rule="evenodd" fill="#211915" d="M238.924,12.456c0.823,0.402,1.364,1.088,1.614,2.063
		c0.808,0.242,1.609,0.151,2.335-0.09c-0.071-0.527-0.236-0.96-0.359-1.436c-0.343,0.116-1.306,0.445-1.346-0.179
		c0.022-0.515,0.548-0.529,0.628-0.988c-0.318-0.31-0.523-0.733-0.987-0.897c-0.392,0.207-0.473,0.724-1.168,0.628
		c-0.214-0.375-0.056-1.044,0.091-1.346c-0.307-0.082-0.557-0.222-0.897-0.269C238.764,10.88,238.963,11.548,238.924,12.456z"/>
	<path fill-rule="evenodd" clip-rule="evenodd" fill="#211915" d="M239.911,14.519c-1.531-0.77-2.053-2.071-2.154-4.307
		c-0.464,0.694-0.275,1.398-0.448,1.974c-0.265,0.881-0.869,1.734-1.706,2.243c-1.767,1.077-5.495-0.196-6.91,1.437
		c0,0.06,0,0.12,0,0.18c0.398,0.47,0.696,1.038,1.076,1.525c1.26-1.11,2.772-1.598,4.668-1.346c1.696,0.226,2.104,1.834,3.948,1.436
		c1.146-2.013,5.857-1.776,7.18-0.09c0.336-0.562,0.76-1.034,1.077-1.614c0-0.031,0-0.061,0-0.091
		C245.179,14.234,241.828,15.483,239.911,14.519z M238.115,16.404c-1.638,0.402-2.766-2.159-0.896-2.692
		c0.423-0.121,0.623-0.158,0.896-0.091C238.978,13.832,239.727,16.009,238.115,16.404z"/>
	<path fill-rule="evenodd" clip-rule="evenodd" fill="#211915" d="M237.309,13.98c-1.55,0.45-0.544,2.555,0.807,2.154
		C239.303,15.783,238.948,13.505,237.309,13.98z M237.577,15.956c-0.976-0.063-1.196-1.502-0.18-1.796
		C238.849,13.741,238.896,16.039,237.577,15.956z"/>
	<path fill-rule="evenodd" clip-rule="evenodd" fill="#211915" d="M240.18,16.673c-0.534,0.261-0.805,0.878-1.256,1.077
		c-1.43,0.637-2.976-0.011-3.68-1.077c-0.774-0.168-1.796-0.417-2.692-0.18c0.097,0.321,0.108,0.729,0.27,0.988
		c1.759-0.409,2.87,0.421,3.409,1.704c0.104,0.247,0.158,0.843,0.27,0.988c0.037,0.046,0.512-0.104,0.45,0.09
		c0.478,0,0.956,0,1.435,0c0.023-0.188,0.395-0.025,0.449-0.18c0.205-1.818,1.487-2.975,3.59-2.603
		c0.344-0.106,0.18-0.718,0.358-0.988C241.97,16.393,240.903,16.321,240.18,16.673z"/>
</g>
<path fill-rule="evenodd" clip-rule="evenodd" fill="#211915" d="M193.245,3.728c-0.488,0-0.977,0-1.464,0
	c-4.586,0.615-8.4,4.035-8.027,9.591c0.155,2.3,1.27,4.074,2.577,5.38c1.397,1.394,3.103,2.313,5.45,2.573c0.487,0,0.976,0,1.464,0
	c4.573-0.68,7.203-3.298,8.026-7.72c0-0.701,0-1.403,0-2.104C200.448,7.024,197.818,4.406,193.245,3.728z M193.011,4.605
	c2.915,0.327,4.861,1.619,6.094,3.625c-0.108,0.008-0.196,0.038-0.235,0.117c-0.454-0.249-0.658-0.745-0.996-1.111
	c-0.249,0.16-0.395,0.425-0.644,0.585c-0.867-0.713-1.784-1.377-3.048-1.696c0.092-0.26,0.165-0.536,0.234-0.818
	c-0.401-0.165-0.904-0.227-1.464-0.234C192.959,4.904,192.921,4.69,193.011,4.605z M191.956,4.605
	c0.23-0.035,0.069,0.32,0.118,0.468c-0.575-0.027-0.967,0.128-1.466,0.175c0.088,0.263,0.107,0.595,0.233,0.819
	c-1.18,0.419-2.193,1.007-3.046,1.754c-0.219-0.151-0.362-0.378-0.585-0.527c-0.466,0.239-0.562,0.844-1.056,1.053
	c-0.038-0.079-0.124-0.109-0.233-0.117C187.147,6.237,189.089,4.959,191.956,4.605z M185.511,16.066
	c-1.184-1.652-1.121-5.399-0.059-7.135c0.123,0.053,0.175,0.178,0.353,0.176c-0.118,0.506-0.406,0.841-0.469,1.404
	c0.229,0.122,0.503,0.199,0.819,0.234c-0.313,0.972-0.313,2.535,0,3.508c-0.336-0.004-0.495,0.167-0.819,0.176
	c0.036,0.607,0.351,0.936,0.469,1.462C185.668,15.911,185.553,15.951,185.511,16.066z M192.074,20.394
	c-2.956-0.306-4.904-1.617-6.152-3.626c0.652-0.318,0.772,0.692,1.229,0.937c0.299-0.091,0.397-0.384,0.645-0.526
	c0.875,0.707,1.78,1.381,3.046,1.696c-0.108,0.241-0.124,0.576-0.233,0.817c0.402,0.165,0.905,0.229,1.466,0.234
	C192.074,20.083,192.074,20.238,192.074,20.394z M191.545,17.646c0.157-0.838,0.336-1.654,0.47-2.515
	c-0.554-0.247-1.162-0.439-1.465-0.937c-0.699,0.53-1.326,1.133-1.992,1.697c-0.471-0.408-0.771-0.985-0.996-1.638
	c0.794-0.319,1.667-0.558,2.461-0.877c-0.151-0.425-0.188-1.28,0-1.697c-0.707-0.423-1.681-0.583-2.461-0.934
	c0.2-0.659,0.552-1.165,0.938-1.638c0.711,0.519,1.337,1.122,1.99,1.695c0.407-0.395,0.843-0.757,1.524-0.877
	c-0.114-0.898-0.315-1.712-0.47-2.573c0.52-0.154,1.422-0.176,1.934,0c-0.149,0.845-0.327,1.661-0.468,2.515
	c0.576,0.224,1.154,0.446,1.465,0.935c0.757-0.511,1.305-1.232,2.109-1.695c0.305,0.533,0.71,0.968,0.879,1.638
	c-0.791,0.321-1.664,0.561-2.463,0.876c0.175,0.527,0.216,1.186,0,1.696c0.713,0.42,1.686,0.581,2.463,0.936
	c-0.169,0.669-0.574,1.104-0.879,1.638c-0.776-0.473-1.368-1.13-2.051-1.697c-0.414,0.389-0.819,0.782-1.523,0.879
	c0.122,0.892,0.322,1.705,0.468,2.572C192.967,17.82,192.064,17.801,191.545,17.646z M192.952,20.336c0-0.137,0-0.273,0-0.41
	c0.573,0.027,0.965-0.128,1.464-0.176c-0.046-0.304-0.12-0.58-0.234-0.818c1.143-0.438,2.216-0.947,2.989-1.754
	c0.374,0.009,0.406,0.584,0.645,0.585c0.366,0.003,0.721-1.51,1.289-0.995C197.889,18.752,195.816,20.191,192.952,20.336z
	 M199.572,16.009c-0.171,0.014-0.179-0.133-0.352-0.117c0.107-0.519,0.431-0.818,0.47-1.403c-0.205-0.128-0.489-0.176-0.763-0.234
	c0.225-1.076,0.225-2.433,0-3.508c0.292-0.021,0.461-0.164,0.763-0.176c-0.013-0.631-0.362-0.925-0.47-1.462
	c0.187,0.009,0.195-0.155,0.411-0.117C200.629,10.833,200.694,14.247,199.572,16.009z"/>
<path fill-rule="evenodd" clip-rule="evenodd" fill="#211915" d="M364.104,12.42c0.298-3.074,1.796-5.259,3.785-6.445
	c-0.71,1.195-1.59,2.319-1.656,4.021c-0.076,1.962,1.127,3.771,2.425,4.198c2.981,0.982,3.502-3.841,1.951-5.676
	c-0.336-0.397-0.73-0.628-1.183-1.005c0.302-0.348,0.551-0.75,0.886-1.064c0.56,0.407,0.898,1.033,1.419,1.478
	c-0.113-0.91-0.399-1.649-0.768-2.306c0.477-0.686,1.015-1.31,1.537-1.951c0.582,0.619,1.105,1.299,1.596,2.01
	c-0.436,0.549-0.672,1.298-0.768,2.188c0.456-0.234,0.767-1.125,1.418-1.359c0.334,0.297,0.612,0.649,0.828,1.063
	c-0.325,0.232-0.679,0.435-0.945,0.709c-1.259,1.294-1.654,4.541-0.06,5.676c1.965,1.398,3.993-1.305,4.198-3.311
	c0.222-2.172-1.031-3.492-1.597-4.73c1.936,1.357,3.326,3.256,3.726,6.149c0,0.572,0,1.144,0,1.715
	c-0.724,4.367-3.942,7.984-9.343,7.509c-2.023-0.177-3.902-1.252-5.084-2.483c-1.25-1.3-2.167-3.166-2.366-5.38
	C364.104,13.09,364.104,12.755,364.104,12.42z"/>
<g>
	<path fill-rule="evenodd" clip-rule="evenodd" fill="#211915" d="M423.228,15.948c1.235-1.346,1.769-4.697,0.547-6.473
		c0.542,1.762-0.389,3.776-1.276,4.376c1.797-2.474,0.332-6.901-1.733-7.659c1.793,1.393,0.445,4.48-0.638,5.653
		c1.724,2.488,0.313,6.266-2.097,7.021c0.017-0.897,0.006-1.769-0.091-2.553c0.373,0.177,0.706,0.871,1.003,0.82
		c-0.207-0.361-0.641-0.911-0.548-1.276c0.598-0.041,1.197-0.08,1.642-0.273c-0.589-0.11-1.368-0.029-1.732-0.364
		c0.176-0.404,0.506-1.134,0.456-1.459c-0.237,0.341-0.553,1.086-0.82,1.094c-0.053-2.713-0.182-5.35-0.183-8.115
		c0.012-0.119,0.014-0.659-0.092-0.364c0,0.212,0,0.426,0,0.638c-0.061,2.644-0.185,5.225-0.182,7.932
		c-0.416-0.282-0.556-0.842-0.912-1.185c0.069,0.585,0.558,1.183,0.456,1.642c-0.629,0.01-1.183,0.093-1.641,0.272
		c0.58,0.058,1.154,0.123,1.641,0.273c-0.131,0.416-0.313,0.781-0.547,1.095c0.183,0.426,0.711-0.785,0.912-0.639
		c-0.061,0.791,0.12,1.823-0.092,2.462c-2.403-0.806-3.64-4.485-2.097-7.111c-1.201-1.082-2.089-4.293-0.729-5.562
		c-2.212,1.247-3.281,5.464-1.459,7.933c-1.089-0.927-1.827-2.938-1.459-4.741c-1.08,1.957-0.626,5.259,0.639,6.654
		c-0.623-0.471-0.886-1.302-1.276-2.005c0.586,3.228,2.736,5.345,6.291,5.563c3.956,0.242,6.803-2.151,7.202-5.563
		C424.17,14.765,423.663,15.716,423.228,15.948z"/>
	<path fill-rule="evenodd" clip-rule="evenodd" fill="#211915" d="M417.712,3.61c-4.908,0-8.889,3.98-8.889,8.889
		c0,4.91,3.98,8.891,8.889,8.891c4.909,0,8.89-3.98,8.89-8.891C426.602,7.59,422.621,3.61,417.712,3.61z M417.712,20.326
		c-4.321,0-7.825-3.505-7.825-7.827c0-4.321,3.504-7.826,7.825-7.826c4.322,0,7.826,3.504,7.826,7.826
		C425.538,16.821,422.034,20.326,417.712,20.326z"/>
</g>
<g>
	<path fill="#211915" d="M65.011,15.598v-0.315h-1.324v-0.667h2.902c0.123-0.55,0.197-1.117,0.218-1.697H48.131
		c0.176,5.005,4.288,9.01,9.338,9.01c0.742,0,1.465-0.088,2.157-0.252v-0.365h-0.668v-0.667h2.087v-0.668h0.603V19.31h2.039v-0.667
		h0.657v-0.667H63.01v-0.418h-0.003v-0.273h-1.962v-0.668h1.298V15.95h2.665v-0.353H65.011z"/>
	<g>
		<path fill="#211915" d="M66.577,10.491H63.01V9.823h1.334V9.157h-2.696V8.49h2.037V8.113h0.002V7.822H63.01V7.156h-1.362V6.489
			h0.695V6.418h-0.001V5.821h-1.297V5.155h0.603V4.224C60.391,3.594,58.97,3.24,57.469,3.24c-5.05,0-9.162,4.004-9.338,9.009h18.675
			C66.785,11.647,66.707,11.059,66.577,10.491z M54.301,10.491c-1.474,0-2.668-1.195-2.668-2.668s1.194-2.667,2.668-2.667
			s2.668,1.194,2.668,2.667S55.774,10.491,54.301,10.491z"/>
	</g>
</g>
<polygon fill="#FFFFFF" points="-219.142,1517.584 -219.142,1501.503 -176.664,1501.503 -176.667,1501.499 -219.188,1501.499 
	-219.188,1517.584 "/>
<path fill="#211915" d="M156.714,17.441c-0.208-0.591-2.504-6.574-2.504-6.574L154.183,7.7c0,0-0.527-4.891-6.614-4.688
	c-0.051,0.001-0.101,0.003-0.149,0.008c-0.05-0.005-0.1-0.007-0.148-0.008c-6.088-0.203-6.616,4.688-6.616,4.688l-0.026,3.168
	c0,0-2.297,5.983-2.504,6.574c-0.209,0.59,0.167,0.866,0.167,0.866c3.255,2.682,6.392,3.555,9.128,3.525
	c2.736,0.029,5.873-0.844,9.128-3.525C156.547,18.308,156.923,18.031,156.714,17.441z M143.043,11.52
	c0.215-0.43,0.645-1.182,2.135-1.154c0,0,1.582-0.082,1.671,1.302l-0.006,0.846c0,0,0.107,0.43-0.604,0.456h-2.914
	c0,0-0.457-0.093-0.442-0.456C142.882,12.514,142.828,11.949,143.043,11.52z M143.44,19.517c-0.278,0-0.504-0.225-0.504-0.503
	c0-0.279,0.226-0.505,0.504-0.505s0.504,0.226,0.504,0.505C143.944,19.292,143.719,19.517,143.44,19.517z M145.431,19.014H144.8
	V17.61l0.631-0.631V19.014z M147.109,19.014h-0.953v-2.666h0.953V19.014z M147.509,15.631h-0.948v-0.949
	c0-0.074,0.009-0.146,0.025-0.215c0.097-0.42,0.473-0.734,0.923-0.734s0.826,0.314,0.924,0.734c0.016,0.069,0.025,0.141,0.025,0.215
	v0.949H147.509z M148.734,19.014h-0.954v-2.666h0.954V19.014z M150.091,19.014h-0.631v-2.034l0.631,0.631V19.014z M151.416,19.517
	c-0.277,0-0.503-0.225-0.503-0.503c0-0.279,0.226-0.505,0.503-0.505c0.278,0,0.504,0.226,0.504,0.505
	C151.92,19.292,151.694,19.517,151.416,19.517z M152.173,12.514c0.014,0.363-0.442,0.456-0.442,0.456h-2.914
	c-0.712-0.026-0.604-0.456-0.604-0.456l-0.006-0.846c0.089-1.384,1.671-1.302,1.671-1.302c1.49-0.028,1.92,0.724,2.135,1.154
	S152.173,12.514,152.173,12.514z M155.703,17.989c-0.039,0.017-0.081,0.023-0.122,0.023c-0.128,0-0.249-0.076-0.301-0.201
	l-2.069-5.056c-0.001-0.003-0.002-0.005-0.003-0.008c-0.894-2.373-1.401-2.773-1.457-2.812c-0.021-0.009-0.039-0.021-0.058-0.035
	c-1.203-0.905-2.484-0.447-2.917-0.247c-0.013,0.014-0.025,0.029-0.04,0.042c-0.142,0.12-0.352,0.252-0.603,0.344
	c-0.212,0.086-0.423,0.12-0.624,0.118c-0.202,0.002-0.413-0.032-0.626-0.118c-0.251-0.092-0.46-0.224-0.602-0.344
	c-0.015-0.013-0.029-0.028-0.041-0.042c-0.432-0.201-1.714-0.66-2.917,0.247c-0.018,0.014-0.037,0.026-0.058,0.035
	c-0.055,0.039-0.563,0.439-1.457,2.812c-0.001,0.003-0.001,0.005-0.004,0.008l-2.068,5.056c-0.051,0.125-0.173,0.201-0.301,0.201
	c-0.04,0-0.082-0.007-0.122-0.023c-0.165-0.067-0.246-0.256-0.179-0.42l2.067-5.051c0.91-2.415,1.495-3.008,1.754-3.149
	c1.788-1.324,3.684-0.242,3.765-0.195c0.019,0.012,0.037,0.025,0.054,0.04c0.151,0.138,0.305,0.219,0.452,0.263
	c0.087,0.023,0.181,0.037,0.281,0.039c0.101,0,0.196-0.017,0.285-0.04c0.146-0.043,0.297-0.125,0.448-0.261
	c0.018-0.015,0.035-0.028,0.055-0.04c0.079-0.046,1.975-1.129,3.764,0.195c0.26,0.141,0.845,0.734,1.753,3.149l2.068,5.051
	C155.948,17.733,155.869,17.922,155.703,17.989z"/>
<g>
	
		<rect x="6.073" y="16.074" transform="matrix(-0.7069 -0.7073 0.7073 -0.7069 1.5355 33.1344)" fill="#211915" width="3.122" height="0.349"/>
	
		<rect x="5.532" y="16.617" transform="matrix(-0.7075 -0.7067 0.7067 -0.7075 0.2439 33.682)" fill="#211915" width="3.122" height="0.346"/>
	
		<rect x="6.612" y="15.536" transform="matrix(-0.707 -0.7072 0.7072 -0.707 2.843 32.5957)" fill="#211915" width="3.122" height="0.346"/>
	<path fill="#211915" d="M3.494,18.182c-0.503,0.503-0.418,1.406,0.191,2.015c0.609,0.609,1.512,0.696,2.017,0.191l2.076-2.074
		l-2.208-2.208L3.494,18.182z"/>
	<path fill="#211915" d="M10.308,15.447c0.027-0.231-0.002-0.474-0.088-0.713c-0.084-0.236-0.205-0.469-0.405-0.668
		C9.6,13.85,9.344,13.726,9.083,13.644c-0.218-0.069-0.435-0.087-0.642-0.063l-0.178-0.177c-0.143-0.146-0.379-0.143-0.527,0.006
		c-0.082,0.082-0.106,0.192-0.095,0.299l-0.152,0.477l2.208,2.207l0.475-0.149c0.108,0.01,0.218-0.015,0.301-0.098
		c0.148-0.146,0.151-0.383,0.008-0.525L10.308,15.447z"/>
	<path fill="#211915" d="M14.747,13.531c0.252-0.251,0.548-0.407,0.847-0.517l-1.788-1.689l5.667-5.996
		c0.238-0.238,0.238-0.626,0-0.867c-0.238-0.238-0.626-0.238-0.866,0l-6.066,5.667L6.518,4.437c-0.238-0.238-0.627-0.238-0.866,0
		c-0.238,0.238-0.238,0.627,0,0.867l5.617,6.014l-1.824,1.704c0.333,0.103,0.658,0.263,0.933,0.537
		c0.252,0.252,0.407,0.549,0.517,0.848l1.64-1.733l1.675,1.793C14.312,14.133,14.472,13.807,14.747,13.531z"/>
	
		<rect x="15.877" y="16.103" transform="matrix(0.7068 -0.7074 0.7074 0.7068 -6.4013 17.1083)" fill="#211915" width="3.123" height="0.347"/>
	
		<rect x="16.419" y="16.643" transform="matrix(0.7073 -0.707 0.707 0.7073 -6.6259 17.6333)" fill="#211915" width="3.121" height="0.349"/>
	
		<rect x="15.337" y="15.562" transform="matrix(0.7074 -0.7068 0.7068 0.7074 -6.178 16.5474)" fill="#211915" width="3.121" height="0.348"/>
	<path fill="#211915" d="M21.577,18.208l-2.074-2.076l-2.209,2.208l2.077,2.076c0.502,0.503,1.405,0.417,2.015-0.191
		C21.994,19.615,22.082,18.712,21.577,18.208z"/>
	<path fill="#211915" d="M17.432,13.737c0.009-0.108-0.014-0.218-0.098-0.301c-0.146-0.147-0.383-0.149-0.524-0.007l-0.173,0.173
		c-0.231-0.028-0.476,0.001-0.714,0.086c-0.237,0.086-0.468,0.206-0.668,0.405c-0.216,0.217-0.341,0.473-0.423,0.733
		c-0.07,0.218-0.087,0.435-0.063,0.643l-0.178,0.176c-0.144,0.144-0.141,0.381,0.007,0.528c0.082,0.082,0.191,0.105,0.3,0.096
		l0.477,0.15l2.206-2.207L17.432,13.737z"/>
</g>
<g>
	<path fill="#211915" d="M328.286,13.813l-0.277-9.797c0-0.265-0.214-0.48-0.48-0.48c-0.264,0-0.479,0.214-0.48,0.48l-0.335,9.833
		c0.242-0.127,0.511-0.22,0.815-0.22C327.809,13.629,328.058,13.708,328.286,13.813z"/>
	<rect x="326.274" y="16.507" fill="#211915" width="2.451" height="0.274"/>
	<rect x="326.274" y="17.109" fill="#211915" width="2.451" height="0.272"/>
	<rect x="326.274" y="15.91" fill="#211915" width="2.451" height="0.272"/>
	<path fill="#211915" d="M326.274,20.016c0,0.557,0.548,1.011,1.225,1.011c0.675,0,1.227-0.454,1.227-1.014v-2.301h-2.451V20.016z"
		/>
	<path fill="#211915" d="M328.729,14.717h-0.19c-0.113-0.144-0.266-0.263-0.443-0.348c-0.18-0.084-0.375-0.146-0.597-0.146
		c-0.24,0-0.451,0.071-0.641,0.172c-0.161,0.08-0.29,0.192-0.393,0.321h-0.196c-0.159-0.002-0.288,0.132-0.288,0.296
		c0,0.091,0.047,0.165,0.113,0.219l0.18,0.35l2.451-0.001l0.179-0.348c0.064-0.055,0.113-0.128,0.113-0.221
		C329.018,14.849,328.889,14.717,328.729,14.717z"/>
</g>
<path fill-rule="evenodd" clip-rule="evenodd" fill="#211915" d="M467.048,4.698h-9.009l-4.504,7.802l4.504,7.803h9.009l4.506-7.803
	L467.048,4.698z M469.956,12.308h-4.816l-1.141-1.976l2.434-4.126L469.956,12.308z M461.327,10.156l-2.386-4.17h7.242l-2.461,4.17
	H461.327z M466.019,19.016h-7.141l2.46-4.171h2.295L466.019,19.016z M458.673,6.175l2.396,4.19l-1.12,1.942h-4.816L458.673,6.175z
	 M455.1,12.634h4.815l1.161,2.011l-2.434,4.127L455.1,12.634z M466.351,18.938l-2.397-4.191l1.221-2.113h4.815L466.351,18.938z"/>
<circle fill-rule="evenodd" clip-rule="evenodd" fill="#211915" cx="642.072" cy="12.832" r="3.052"/>
<path fill="#211915" d="M647.601,13.766l3.864-0.934l-3.89-1.133l1.354-0.959l-3.922-0.533c0.499,0.692,0.805,1.612,0.805,2.625
	c0,0.903-0.244,1.732-0.65,2.393l3.792-0.449L647.601,13.766z"/>
<path fill="#211915" d="M636.616,13.766l-3.864-0.934l3.89-1.133l-1.354-0.959l3.922-0.533c-0.498,0.692-0.805,1.612-0.805,2.625
	c0,0.903,0.244,1.732,0.65,2.393l-3.792-0.449L636.616,13.766z"/>
<path fill="none" d="M732.989,54.936v-2.148c-0.302-0.039-0.608-0.063-0.921-0.063c-0.353,0-0.699,0.027-1.037,0.078v2.133h-1.412
	v-1.764c-2.619,0.988-4.482,3.52-4.482,6.485c0,3.828,3.104,6.933,6.932,6.933S739,63.485,739,59.657c0-3.011-1.918-5.571-4.6-6.529
	v1.808H732.989z"/>
<g>
	<circle fill-rule="evenodd" clip-rule="evenodd" fill="#211915" cx="778.057" cy="14.221" r="2.223"/>
	<polygon fill-rule="evenodd" clip-rule="evenodd" fill="#211915" points="775.834,7.241 776.849,6.54 776.849,8.89 	"/>
	<polygon fill-rule="evenodd" clip-rule="evenodd" fill="#211915" points="780.149,7.241 779.135,6.54 779.135,8.89 	"/>
	<path fill="#211915" d="M782.339,16.555l2.911,0.556l-2.494-1.588c0.074-0.267,0.127-0.54,0.154-0.823l2.043-0.538l-2.051-0.48
		c-0.031-0.28-0.086-0.555-0.162-0.818l2.459-1.657l-2.889,0.63c-0.138-0.245-0.296-0.477-0.472-0.693l1.072-1.82l-1.794,1.102
		c-0.232-0.187-0.481-0.354-0.746-0.497l0.543-2.913l-1.438,2.282v0.951c1.632,0.583,2.8,2.141,2.8,3.974
		c0,2.329-1.89,4.22-4.219,4.22c-2.33,0-4.219-1.891-4.219-4.22c0-1.805,1.134-3.345,2.728-3.947v-0.98l-1.484-2.231l0.614,2.893
		c-0.245,0.136-0.478,0.292-0.694,0.467l-1.816-1.082l1.093,1.8c-0.188,0.231-0.356,0.479-0.5,0.743l-2.911-0.559l2.492,1.588
		c-0.073,0.267-0.125,0.543-0.154,0.824l-2.043,0.536l2.049,0.482c0.031,0.28,0.087,0.555,0.164,0.819l-2.461,1.653l2.89-0.627
		c0.136,0.244,0.294,0.477,0.47,0.692l-1.072,1.821l1.794-1.103c0.232,0.188,0.48,0.355,0.744,0.499l-0.545,2.912l1.578-2.501
		c0.267,0.074,0.542,0.124,0.825,0.151l0.545,2.041l0.473-2.052c0.267-0.031,0.527-0.083,0.778-0.154l1.646,2.467l-0.616-2.892
		c0.245-0.137,0.477-0.293,0.694-0.469l1.816,1.08l-1.095-1.798C782.027,17.066,782.195,16.817,782.339,16.555z"/>
	<path fill="#211915" d="M778.058,10.001c0.19,0,0.376,0.015,0.56,0.038V9.379c-0.011-0.001-0.021-0.004-0.031-0.005l-0.528-5.163
		l-0.619,5.175c-0.004,0-0.009,0.001-0.013,0.001v0.662C777.632,10.018,777.843,10.001,778.058,10.001z"/>
</g>
<g>
	<path fill-rule="evenodd" clip-rule="evenodd" fill="#211915" d="M687.477,3.736c-4.84,0-8.763,3.923-8.763,8.763
		c0,4.839,3.923,8.764,8.763,8.764s8.765-3.925,8.765-8.764C696.241,7.66,692.316,3.736,687.477,3.736z M687.477,20.466
		c-4.399,0-7.966-3.565-7.966-7.966c0-4.399,3.566-7.966,7.966-7.966c4.401,0,7.967,3.567,7.967,7.966
		C695.443,16.9,691.878,20.466,687.477,20.466z"/>
	<path fill="#211915" d="M691.685,8.992l1.473-1.483l-1.646,1.305C691.571,8.873,691.629,8.933,691.685,8.992z"/>
	<path fill="#211915" d="M694.868,10.73l-1.947,0.37c0.023,0.074,0.048,0.148,0.069,0.224L694.868,10.73z"/>
	<path fill="#211915" d="M684.811,19.731l0.658-1.488c-0.06-0.022-0.12-0.046-0.18-0.07L684.811,19.731z"/>
	<path fill="#211915" d="M684.474,8.06l-1.357-1.718l1.137,1.854c0.031-0.02,0.062-0.04,0.094-0.06L684.474,8.06z"/>
	<path fill="#211915" d="M680.747,16.167l1.628-0.745c-0.031-0.064-0.064-0.126-0.093-0.19L680.747,16.167z"/>
	<path fill="#211915" d="M688.435,20.153l-0.109-1.62c-0.063,0.008-0.126,0.016-0.189,0.021L688.435,20.153z"/>
	<path fill="#211915" d="M690.216,19.703l-0.493-1.548c-0.059,0.024-0.119,0.049-0.179,0.071L690.216,19.703z"/>
	<path fill="#211915" d="M694.208,9.016l-1.855,0.85c0.042,0.068,0.082,0.138,0.121,0.208L694.208,9.016z"/>
	<path fill="#211915" d="M684.485,8.574l1.313,2.142l-1.773-1.378c-0.059,0.104-0.111,0.21-0.162,0.318l1.535,1.515l-1.788-0.795
		c-0.028,0.126-0.049,0.26-0.062,0.399l1.57,0.936l-1.564-0.28c0.021,0.161,0.056,0.317,0.1,0.468l1.322,0.402l-1.137,0.074
		c0.088,0.179,0.189,0.342,0.303,0.489l0.837,0.044l-0.626,0.198c0.198,0.198,0.415,0.343,0.629,0.419l0.146-0.028l-0.078,0.048
		c0.138,0.041,0.271,0.065,0.393,0.065c0.515,0,0.796-0.374,0.94-0.688c0.36-0.776,0.281-1.935-0.148-2.632l-0.25-0.316
		c-0.109-0.107-0.229-0.197-0.362-0.299c-0.092-0.07-0.187-0.143-0.288-0.226l-0.143-0.121l0.122-0.142
		c0.009-0.01,0.017-0.02,0.024-0.03l-0.682-0.865l-0.058,0.098C684.563,8.45,684.522,8.511,684.485,8.574z"/>
	<path fill="#211915" d="M683.41,8.859l-1.663-1.292l1.489,1.471C683.293,8.976,683.351,8.917,683.41,8.859z"/>
	<path fill="#211915" d="M681.798,17.673l1.344-1.065c-0.044-0.052-0.088-0.103-0.13-0.156L681.798,17.673z"/>
	<path fill="#211915" d="M680.711,9.083l1.753,1.044c0.038-0.071,0.076-0.142,0.117-0.211L680.711,9.083z"/>
	<path fill="#211915" d="M680.068,10.805l1.904,0.58c0.02-0.077,0.04-0.153,0.063-0.228L680.068,10.805z"/>
	<path fill="#211915" d="M680.086,14.453l1.824-0.346c-0.016-0.073-0.032-0.144-0.046-0.216L680.086,14.453z"/>
	<path fill="#211915" d="M681.768,12.506l-1.912,0.124l1.907,0.103v-0.193C681.765,12.528,681.766,12.518,681.768,12.506z"/>
	<path fill="#211915" d="M686.688,18.546l-0.092,1.617l0.282-1.599c-0.014,0-0.028-0.002-0.041-0.002
		C686.787,18.559,686.738,18.552,686.688,18.546z"/>
	<path fill="#211915" d="M683.179,18.886l1.017-1.314c-0.053-0.037-0.106-0.076-0.159-0.115L683.179,18.886z"/>
	<path fill="#211915" d="M686.521,5.03l0.162,2.43c0.079-0.1,0.158-0.199,0.237-0.295L686.521,5.03z"/>
	<path fill="#211915" d="M688.357,5.021l-0.364,2.065c0.076,0.093,0.154,0.188,0.231,0.289L688.357,5.021z"/>
	<polygon fill="#211915" points="695.099,12.553 693.19,12.45 693.19,12.676 	"/>
	<path fill="#211915" d="M693.208,17.616l-1.234-1.217c-0.041,0.054-0.083,0.107-0.125,0.161L693.208,17.616z"/>
	<path fill="#211915" d="M689.739,9.402l-0.13,0.093c-0.062,0.043-0.121,0.084-0.182,0.125c-0.156,0.104-0.301,0.203-0.417,0.322
		c-0.459,0.471-0.738,1.404-0.665,2.218c0.052,0.561,0.264,1.003,0.602,1.242c0.205,0.146,0.418,0.22,0.634,0.22
		c0.129,0,0.255-0.028,0.378-0.075l-0.123-0.074l0.212,0.037c0.204-0.094,0.397-0.245,0.571-0.432l-0.641-0.195l0.85-0.055
		c0.111-0.152,0.212-0.317,0.298-0.49l-1.15-0.062l1.343-0.424c0.047-0.157,0.082-0.314,0.099-0.466l-1.59,0.303l1.591-0.972
		c-0.014-0.135-0.038-0.267-0.069-0.391l-1.808,0.827l1.538-1.549c-0.053-0.108-0.108-0.212-0.165-0.314l-1.777,1.41l1.327-2.213
		c-0.026-0.052-0.055-0.103-0.077-0.154l-0.068-0.148l-0.73,0.944c0.025,0.044,0.054,0.088,0.078,0.134L689.739,9.402z"/>
	<path fill="#211915" d="M694.243,16.099l-1.556-0.927c-0.029,0.066-0.059,0.132-0.088,0.194L694.243,16.099z"/>
	<path fill="#211915" d="M694.886,14.379l-1.771-0.54c-0.015,0.072-0.031,0.143-0.048,0.213L694.886,14.379z"/>
	<path fill="#211915" d="M691.838,18.843l-0.868-1.417c-0.052,0.04-0.104,0.08-0.157,0.118L691.838,18.843z"/>
	<path fill="#211915" d="M690.682,8.122l1.094-1.824l-1.299,1.679l0.183,0.128C690.666,8.111,690.675,8.117,690.682,8.122z"/>
	<path fill="#211915" d="M686.021,8.368l0.047,0.034l-1.328-2.923l1.009,3.168c0.052-0.061,0.104-0.12,0.162-0.174L686.021,8.368z"
		/>
	<path fill="#211915" d="M688.997,8.435l0.081,0.074c0.034,0.031,0.065,0.062,0.098,0.094l0.969-3.15l-1.362,3.075
		c0.036-0.02,0.072-0.04,0.111-0.055L688.997,8.435z"/>
	<path fill-rule="evenodd" clip-rule="evenodd" fill="#211915" d="M681.926,12.567c0.197-2.024,1.184-3.463,2.494-4.245
		c-0.468,0.787-1.048,1.527-1.092,2.648c-0.05,1.292,0.744,2.483,1.597,2.764c1.964,0.647,2.307-2.529,1.286-3.738
		c-0.223-0.261-0.481-0.414-0.778-0.663c0.198-0.228,0.362-0.493,0.582-0.7c0.369,0.268,0.593,0.681,0.935,0.974
		c-0.074-0.6-0.262-1.086-0.504-1.52c0.313-0.451,0.667-0.862,1.011-1.284c0.385,0.408,0.729,0.856,1.052,1.323
		c-0.287,0.362-0.443,0.855-0.506,1.441c0.3-0.154,0.504-0.741,0.935-0.895c0.219,0.195,0.403,0.426,0.545,0.699
		c-0.214,0.154-0.448,0.286-0.623,0.467c-0.83,0.853-1.089,2.991-0.04,3.739c1.295,0.92,2.631-0.859,2.767-2.181
		c0.146-1.431-0.68-2.3-1.052-3.116c1.275,0.894,2.19,2.145,2.453,4.05c0,0.376,0,0.752,0,1.128
		c-0.477,2.876-2.596,5.259-6.152,4.946c-1.334-0.115-2.571-0.825-3.35-1.636c-0.823-0.856-1.427-2.084-1.559-3.544
		C681.926,13.008,681.926,12.789,681.926,12.567z"/>
</g>
<g>
	<path fill-rule="evenodd" clip-rule="evenodd" fill="#211915" d="M552.743,3.926c-4.793,0-8.678,3.885-8.678,8.677
		c0,4.793,3.885,8.678,8.678,8.678c4.792,0,8.677-3.885,8.677-8.678C561.42,7.811,557.535,3.926,552.743,3.926z M552.743,20.492
		c-4.356,0-7.889-3.533-7.889-7.89c0-4.357,3.532-7.888,7.889-7.888c4.355,0,7.888,3.531,7.888,7.888
		C560.631,16.959,557.099,20.492,552.743,20.492z"/>
	<polygon fill-rule="evenodd" clip-rule="evenodd" fill="#211915" points="556.208,18.791 556.079,19.03 556.255,19.235 
		556.023,19.376 556.074,19.643 555.805,19.648 555.714,19.903 555.478,19.775 555.272,19.95 555.13,19.72 554.865,19.771 
		554.857,19.499 554.602,19.41 554.732,19.173 554.556,18.967 554.786,18.826 554.736,18.561 555.007,18.554 555.096,18.299 
		555.334,18.428 555.539,18.251 555.68,18.481 555.946,18.432 555.952,18.703 	"/>
	<polygon fill-rule="evenodd" clip-rule="evenodd" fill="#211915" points="553.523,19.229 553.435,19.483 553.641,19.658 
		553.437,19.835 553.527,20.09 553.262,20.14 553.214,20.405 552.959,20.316 552.785,20.523 552.608,20.317 552.354,20.409 
		552.305,20.144 552.037,20.097 552.127,19.841 551.92,19.667 552.125,19.49 552.033,19.236 552.301,19.186 552.347,18.92 
		552.602,19.009 552.776,18.802 552.953,19.007 553.206,18.916 553.258,19.182 	"/>
	<polygon fill-rule="evenodd" clip-rule="evenodd" fill="#211915" points="550.799,18.614 550.73,18.876 550.952,19.031 
		550.765,19.226 550.878,19.471 550.616,19.544 550.593,19.813 550.331,19.746 550.176,19.967 549.982,19.779 549.736,19.894 
		549.663,19.634 549.395,19.61 549.461,19.347 549.238,19.192 549.428,18.998 549.313,18.753 549.574,18.68 549.598,18.41 
		549.86,18.476 550.016,18.255 550.209,18.443 550.455,18.33 550.527,18.591 	"/>
	<polygon fill-rule="evenodd" clip-rule="evenodd" fill="#211915" points="548.428,17.093 548.41,17.362 548.656,17.476 
		548.505,17.7 548.661,17.92 548.418,18.04 548.443,18.31 548.173,18.29 548.061,18.535 547.835,18.386 547.615,18.541 
		547.496,18.299 547.226,18.325 547.244,18.054 546.999,17.94 547.15,17.717 546.994,17.496 547.236,17.377 547.211,17.107 
		547.481,17.127 547.594,16.88 547.819,17.03 548.04,16.874 548.159,17.118 	"/>
	<polygon fill-rule="evenodd" clip-rule="evenodd" fill="#211915" points="546.776,14.756 546.794,15.025 547.054,15.105 
		546.935,15.349 547.12,15.545 546.896,15.697 546.956,15.959 546.686,15.978 546.607,16.236 546.365,16.118 546.168,16.304 
		546.018,16.078 545.753,16.14 545.734,15.869 545.476,15.79 545.596,15.548 545.41,15.352 545.634,15.2 545.572,14.936 
		545.844,14.918 545.922,14.659 546.165,14.779 546.362,14.593 546.514,14.818 	"/>
	<polygon fill-rule="evenodd" clip-rule="evenodd" fill="#211915" points="546.077,12.003 546.135,12.268 546.403,12.308 
		546.32,12.563 546.534,12.733 546.334,12.916 546.433,13.167 546.168,13.225 546.129,13.492 545.871,13.41 545.703,13.623 
		545.521,13.422 545.269,13.522 545.211,13.259 544.943,13.219 545.026,12.961 544.814,12.793 545.014,12.61 544.913,12.359 
		545.178,12.301 545.217,12.034 545.476,12.114 545.644,11.903 545.826,12.104 	"/>
	<polygon fill-rule="evenodd" clip-rule="evenodd" fill="#211915" points="546.525,9.348 546.594,9.61 546.862,9.64 546.79,9.9 
		547.009,10.06 546.816,10.25 546.926,10.498 546.663,10.565 546.634,10.834 546.374,10.763 546.215,10.981 546.024,10.789 
		545.777,10.898 545.709,10.636 545.439,10.607 545.512,10.346 545.293,10.187 545.485,9.996 545.376,9.749 545.639,9.681 
		545.667,9.412 545.929,9.484 546.088,9.266 546.278,9.458 	"/>
	<polygon fill-rule="evenodd" clip-rule="evenodd" fill="#211915" points="547.861,6.977 547.979,7.22 548.247,7.196 548.229,7.466 
		548.475,7.58 548.323,7.804 548.479,8.025 548.234,8.144 548.26,8.413 547.989,8.393 547.875,8.639 547.651,8.487 547.431,8.643 
		547.312,8.399 547.042,8.423 547.062,8.153 546.816,8.04 546.968,7.815 546.813,7.594 547.056,7.477 547.031,7.207 547.302,7.226 
		547.416,6.98 547.64,7.133 	"/>
	<polygon fill-rule="evenodd" clip-rule="evenodd" fill="#211915" points="549.965,5.451 550.106,5.682 550.372,5.632 
		550.378,5.903 550.633,5.993 550.504,6.23 550.679,6.436 550.448,6.577 550.498,6.843 550.227,6.848 550.137,7.104 549.9,6.974 
		549.693,7.149 549.554,6.918 549.288,6.968 549.282,6.697 549.025,6.607 549.155,6.371 548.98,6.165 549.211,6.024 549.161,5.758 
		549.433,5.752 549.523,5.497 549.761,5.627 	"/>
	<polygon fill-rule="evenodd" clip-rule="evenodd" fill="#211915" points="552.563,4.826 552.741,5.029 552.996,4.935 553.047,5.2 
		553.314,5.245 553.228,5.5 553.437,5.673 553.231,5.852 553.327,6.105 553.062,6.158 553.016,6.424 552.761,6.337 552.588,6.546 
		552.409,6.343 552.155,6.437 552.104,6.172 551.837,6.126 551.925,5.871 551.715,5.698 551.92,5.519 551.825,5.267 552.09,5.214 
		552.135,4.947 552.392,5.034 	"/>
	<polygon fill-rule="evenodd" clip-rule="evenodd" fill="#211915" points="555.089,5.327 555.291,5.506 555.531,5.381 
		555.615,5.639 555.887,5.649 555.832,5.915 556.06,6.061 555.881,6.261 556.005,6.501 555.749,6.587 555.737,6.857 555.472,6.803 
		555.327,7.031 555.124,6.851 554.885,6.977 554.801,6.72 554.529,6.708 554.583,6.443 554.356,6.297 554.536,6.096 554.41,5.856 
		554.668,5.771 554.68,5.5 554.944,5.555 	"/>
	<polygon fill-rule="evenodd" clip-rule="evenodd" fill="#211915" points="557.293,6.8 557.517,6.951 557.738,6.793 557.857,7.036 
		558.126,7.009 558.109,7.28 558.356,7.391 558.207,7.616 558.363,7.836 558.121,7.956 558.147,8.226 557.877,8.208 557.766,8.455 
		557.54,8.305 557.32,8.462 557.199,8.22 556.931,8.246 556.947,7.976 556.703,7.864 556.852,7.639 556.695,7.419 556.937,7.299 
		556.91,7.03 557.18,7.047 	"/>
	<polygon fill-rule="evenodd" clip-rule="evenodd" fill="#211915" points="558.774,9.077 559.008,9.212 559.218,9.043 
		559.353,9.277 559.619,9.234 559.619,9.504 559.873,9.601 559.736,9.835 559.907,10.045 559.674,10.179 559.717,10.446 
		559.446,10.446 559.349,10.699 559.114,10.563 558.904,10.734 558.771,10.5 558.504,10.543 558.504,10.272 558.252,10.176 
		558.387,9.942 558.216,9.732 558.449,9.597 558.406,9.33 558.677,9.33 	"/>
	<polygon fill-rule="evenodd" clip-rule="evenodd" fill="#211915" points="559.221,11.8 559.477,11.885 559.646,11.675 
		559.827,11.876 560.08,11.779 560.135,12.045 560.402,12.087 560.318,12.344 560.527,12.515 560.327,12.695 560.424,12.947 
		560.158,13.002 560.115,13.271 559.858,13.185 559.689,13.395 559.508,13.193 559.256,13.29 559.2,13.025 558.933,12.982 
		559.019,12.727 558.809,12.555 559.01,12.375 558.913,12.122 559.178,12.068 	"/>
	<polygon fill-rule="evenodd" clip-rule="evenodd" fill="#211915" points="558.632,14.561 558.897,14.614 559.04,14.385 
		559.245,14.562 559.482,14.435 559.569,14.691 559.841,14.7 559.788,14.965 560.019,15.109 559.84,15.312 559.968,15.551 
		559.712,15.639 559.703,15.908 559.438,15.856 559.295,16.086 559.09,15.908 558.853,16.036 558.764,15.779 558.494,15.771 
		558.547,15.505 558.316,15.362 558.495,15.158 558.366,14.92 558.623,14.832 	"/>
	<polygon fill-rule="evenodd" clip-rule="evenodd" fill="#211915" points="557.116,16.903 557.387,16.922 557.499,16.676 
		557.725,16.826 557.945,16.669 558.063,16.912 558.334,16.886 558.315,17.157 558.563,17.268 558.411,17.493 558.568,17.714 
		558.325,17.834 558.351,18.104 558.081,18.086 557.969,18.33 557.744,18.181 557.522,18.338 557.402,18.096 557.133,18.121 
		557.151,17.85 556.906,17.738 557.057,17.513 556.899,17.292 557.142,17.173 	"/>
	<path fill-rule="evenodd" clip-rule="evenodd" fill="#211915" d="M547.114,12.482c0.2-2.062,1.204-3.527,2.536-4.321
		c-0.475,0.801-1.064,1.554-1.108,2.695c-0.052,1.315,0.755,2.527,1.625,2.813c1.998,0.66,2.348-2.573,1.307-3.803
		c-0.224-0.266-0.489-0.421-0.792-0.675c0.203-0.233,0.37-0.502,0.595-0.712c0.375,0.272,0.603,0.692,0.951,0.99
		c-0.077-0.61-0.268-1.105-0.516-1.546c0.319-0.46,0.681-0.878,1.031-1.308c0.39,0.416,0.741,0.871,1.069,1.348
		c-0.293,0.368-0.451,0.87-0.515,1.466c0.306-0.157,0.514-0.753,0.95-0.91c0.224,0.199,0.41,0.435,0.556,0.712
		c-0.219,0.156-0.455,0.292-0.635,0.475c-0.843,0.869-1.108,3.045-0.04,3.806c1.318,0.938,2.677-0.874,2.814-2.219
		c0.148-1.457-0.69-2.342-1.069-3.171c1.296,0.91,2.229,2.182,2.497,4.121c0,0.384,0,0.767,0,1.148
		c-0.485,2.929-2.643,5.353-6.264,5.034c-1.355-0.119-2.614-0.839-3.408-1.665c-0.837-0.872-1.451-2.122-1.585-3.605
		C547.114,12.93,547.114,12.706,547.114,12.482z"/>
</g>
<g>
	<path fill-rule="evenodd" clip-rule="evenodd" fill="#211915" d="M598.795,8.523l-0.91-0.061c-0.031-0.52-0.167-0.595-0.167-0.595
		v0.874v0.874c0,0,0.136-0.075,0.167-0.596l0.91-0.06c0,0-0.476-0.054-0.65-0.218C598.319,8.577,598.795,8.523,598.795,8.523z"/>
	<path fill-rule="evenodd" clip-rule="evenodd" fill="#211915" d="M596.437,8.523l0.912-0.061c0.031-0.52,0.165-0.595,0.165-0.595
		v0.874v0.874c0,0-0.134-0.075-0.165-0.596l-0.912-0.06c0,0,0.477-0.054,0.65-0.218C596.913,8.577,596.437,8.523,596.437,8.523z"/>
	<path fill-rule="evenodd" clip-rule="evenodd" fill="#211915" d="M600.113,14.973v-2.238c0,0-0.067-0.521,0.407-0.928
		c0.475-0.406,1.853-1.377,1.763-2.757c-0.09-1.379-0.481-2.328-2.173-3.3c0,0,2.602,0.633,3.37,3.3c0,0,0.905,2.193-0.699,4.476
		C602.781,13.525,601.695,15.04,600.113,14.973z"/>
	<path fill-rule="evenodd" clip-rule="evenodd" fill="#211915" d="M600.117,16.686c0,0-0.343-0.083-0.274-0.357l0.268-0.678
		c0,0,0.185-0.498,0.999-0.588c0,0,1.818-0.255,2.417-1.786c0,0,1.085-1.604,0.543-3.978c0,0,0.813,0.932,0.746,3.676
		c0,0-0.137,2.743-3.052,3.783C601.764,16.758,600.944,16.938,600.117,16.686z"/>
	<path fill-rule="evenodd" clip-rule="evenodd" fill="#211915" d="M595.105,14.973v-2.238c0,0,0.067-0.521-0.408-0.928
		c-0.475-0.406-1.853-1.377-1.762-2.757c0.09-1.379,0.48-2.328,2.172-3.3c0,0-2.602,0.633-3.37,3.3c0,0-0.905,2.193,0.701,4.476
		C592.438,13.525,593.522,15.04,595.105,14.973z"/>
	<path fill-rule="evenodd" clip-rule="evenodd" fill="#211915" d="M595.101,16.686c0,0,0.343-0.083,0.274-0.357l-0.268-0.678
		c0,0-0.184-0.498-0.997-0.588c0,0-1.819-0.255-2.418-1.786c0,0-1.085-1.604-0.543-3.978c0,0-0.813,0.932-0.746,3.676
		c0,0,0.136,2.743,3.051,3.783C593.454,16.758,594.274,16.938,595.101,16.686z"/>
	<path fill="#211915" d="M601.673,17.097c0,0-0.685-0.007-1.296-0.105c0,0-0.591-0.109-0.885,0.427c0,0-0.357,0.696-0.389,0.847
		c0,0-1.092-0.58-1.193-4.016l-0.102,4.476c0,0-0.047,0.158-0.153,0.186c-0.105-0.027-0.152-0.186-0.152-0.186l-0.038-0.868l0,0
		l-0.086-7.42c-0.022-0.248-0.403-0.384-0.403-0.384c-0.297-0.135-0.456-0.346-0.456-0.346c-0.919-0.814-0.083-2.004-0.083-2.004
		c-0.956,0.995-0.972,2.292-0.972,2.292c1.07,0.15,1.511,2.063,1.511,2.063l-0.048,3.451c-0.138,1.764-0.403,2.386-0.553,2.601
		c-0.1,0.118-0.168,0.157-0.168,0.157c-0.03-0.15-0.387-0.847-0.387-0.847c-0.295-0.536-0.887-0.427-0.887-0.427
		c-0.609,0.099-1.296,0.105-1.296,0.105c-1.74-0.212-2.637-1.567-2.637-1.567c0.683,1.951,1.79,2.482,1.79,2.482
		c0.881,0.587,2.072,0,2.072,0c-0.287,0.502-1.113,0.758-1.113,0.758c1.37,0.875,2.688,1.178,3.844,1.192v0.002
		c0.021,0,0.04-0.001,0.062-0.002c0.021,0.001,0.042,0.002,0.063,0.002v-0.002c1.156-0.015,2.474-0.317,3.843-1.192
		c0,0-0.824-0.256-1.113-0.758c0,0,1.191,0.587,2.074,0c0,0,1.106-0.531,1.789-2.482C604.311,15.529,603.414,16.885,601.673,17.097z
		"/>
	<g>
		<path fill="#211915" d="M597.582,21.558c-4.811,0-8.727-3.916-8.727-8.727c0-4.812,3.916-8.727,8.727-8.727
			c4.813,0,8.727,3.915,8.727,8.727C606.309,17.642,602.395,21.558,597.582,21.558z M597.582,4.646
			c-4.512,0-8.184,3.672-8.184,8.185c0,4.512,3.672,8.184,8.184,8.184c4.513,0,8.185-3.672,8.185-8.184
			C605.767,8.318,602.095,4.646,597.582,4.646z"/>
	</g>
</g>
<g>
	<polygon fill-rule="evenodd" clip-rule="evenodd" fill="#211915" points="732.636,5.104 735.555,6.775 735.938,6.103 
		732.501,4.118 729.034,6.119 729.494,6.905 	"/>
	<polygon fill-rule="evenodd" clip-rule="evenodd" fill="#211915" points="725.894,16.693 725.894,13.097 725.039,13.097 
		725.039,17.04 728.533,19.059 728.9,18.416 	"/>
	<polygon fill-rule="evenodd" clip-rule="evenodd" fill="#211915" points="732.636,20.558 729.486,18.751 729.118,19.396 
		732.501,21.349 735.978,19.341 735.671,18.817 	"/>
	<polygon fill-rule="evenodd" clip-rule="evenodd" fill="#211915" points="725.894,8.967 728.909,7.24 728.451,6.457 725.039,8.426 
		725.039,12.421 725.894,12.421 	"/>
	<polygon fill-rule="evenodd" clip-rule="evenodd" fill="#211915" points="739.38,8.967 739.38,12.421 739.961,12.421 
		739.961,8.426 736.524,6.441 736.142,7.112 	"/>
	<polygon fill-rule="evenodd" clip-rule="evenodd" fill="#211915" points="739.38,16.693 736.258,18.482 736.563,19.003 
		739.961,17.04 739.961,13.097 739.38,13.097 	"/>
	<polygon fill="#211915" points="738.434,13.691 738.005,13.711 738.005,14.919 734.989,13.574 735.023,13.631 735.023,11.99 
		737.989,10.651 738.039,11.888 738.423,11.881 738.476,9.358 736.254,8.204 736.06,8.586 737.11,9.181 734.522,11.087 
		733.136,10.293 733.477,7.104 734.568,7.687 734.757,7.353 732.607,6.031 730.487,7.363 730.719,7.724 731.764,7.119 
		732.094,10.259 730.654,11.083 728.116,9.226 729.167,8.574 728.973,8.243 726.751,9.44 726.841,11.942 727.269,11.923 
		727.269,10.715 730.147,12.003 730.147,13.69 727.284,14.982 727.235,13.746 726.851,13.753 726.798,16.276 729.02,17.431 
		729.215,17.048 728.164,16.453 730.774,14.531 730.771,14.525 732.141,15.31 731.798,18.529 730.706,17.947 730.518,18.281 
		732.667,19.604 734.786,18.271 734.555,17.91 733.511,18.515 733.159,15.174 733.067,15.288 734.52,14.457 734.511,14.471 
		737.158,16.408 736.107,17.06 736.302,17.391 738.523,16.193 	"/>
</g>
<g>
	<path fill-rule="evenodd" clip-rule="evenodd" fill="#211915" d="M507.583,3.506c-5.012,0-9.076,4.063-9.076,9.077
		c0,5.012,4.064,9.077,9.076,9.077c5.013,0,9.077-4.065,9.077-9.077C516.66,7.57,512.596,3.506,507.583,3.506z M507.583,20.81
		c-4.542,0-8.226-3.684-8.226-8.227c0-4.542,3.684-8.226,8.226-8.226c4.544,0,8.226,3.684,8.226,8.226
		C515.809,17.126,512.127,20.81,507.583,20.81z"/>
	<path fill-rule="evenodd" clip-rule="evenodd" fill="#211915" d="M502.492,8.659l-0.681-0.682
		c-0.849,1.061-1.409,2.359-1.567,3.779h0.965C501.357,10.598,501.813,9.538,502.492,8.659z"/>
	<path fill-rule="evenodd" clip-rule="evenodd" fill="#211915" d="M506.827,6.2V5.234c-1.414,0.145-2.707,0.688-3.771,1.515
		l0.683,0.68C504.62,6.771,505.677,6.333,506.827,6.2z"/>
	<path fill-rule="evenodd" clip-rule="evenodd" fill="#211915" d="M511.561,7.534l0.682-0.681c-1.029-0.838-2.286-1.403-3.666-1.588
		V6.23C509.691,6.403,510.713,6.864,511.561,7.534z"/>
	<path fill-rule="evenodd" clip-rule="evenodd" fill="#211915" d="M513.959,11.755h0.964c-0.152-1.362-0.675-2.611-1.463-3.646
		l-0.685,0.684C513.398,9.645,513.817,10.657,513.959,11.755z"/>
	<path fill-rule="evenodd" clip-rule="evenodd" fill="#211915" d="M508.576,18.937V19.9c1.355-0.182,2.594-0.731,3.613-1.545
		l-0.682-0.682C510.67,18.321,509.669,18.766,508.576,18.937z"/>
	<path fill-rule="evenodd" clip-rule="evenodd" fill="#211915" d="M501.222,13.505h-0.966c0.175,1.407,0.745,2.691,1.598,3.737
		l0.681-0.682C501.852,15.695,501.385,14.648,501.222,13.505z"/>
	<path fill-rule="evenodd" clip-rule="evenodd" fill="#211915" d="M503.793,17.774l-0.684,0.685
		c1.055,0.804,2.327,1.331,3.718,1.472v-0.965C505.701,18.834,504.665,18.412,503.793,17.774z"/>
	<path fill-rule="evenodd" clip-rule="evenodd" fill="#211915" d="M513.945,13.505c-0.155,1.085-0.581,2.084-1.209,2.922
		l0.683,0.683c0.793-1.021,1.323-2.257,1.492-3.604H513.945z"/>
	<path fill-rule="evenodd" clip-rule="evenodd" fill="#211915" d="M513.067,13.104v-1.088h-2.898
		c-0.066-0.301-0.185-0.583-0.344-0.834l2.048-2.048l-0.769-0.769l-2.031,2.031c-0.255-0.175-0.542-0.303-0.851-0.379V7.17h-1.089
		v2.807c-0.333,0.056-0.645,0.177-0.925,0.346l-1.958-1.958l-0.769,0.769l1.934,1.933c-0.198,0.281-0.342,0.603-0.418,0.95h-2.709
		v1.088h2.7c0.069,0.354,0.21,0.682,0.406,0.969l-1.913,1.913l0.769,0.771l1.93-1.931c0.285,0.179,0.608,0.305,0.953,0.363v2.761
		h1.089v-2.801c0.318-0.078,0.615-0.215,0.878-0.398l2.004,2.006l0.769-0.771l-2.029-2.028c0.158-0.26,0.272-0.547,0.336-0.854
		H513.067z"/>
</g>
</svg>
