<?xml version="1.0" encoding="utf-8"?>
<!-- Generator: Adobe Illustrator 15.1.0, SVG Export Plug-In . SVG Version: 6.00 Build 0)  -->
<!DOCTYPE svg PUBLIC "-//W3C//DTD SVG 1.1//EN" "http://www.w3.org/Graphics/SVG/1.1/DTD/svg11.dtd">
<svg version="1.1" id="Camada_1" xmlns="http://www.w3.org/2000/svg" xmlns:xlink="http://www.w3.org/1999/xlink" x="0px" y="0px"
	 width="25px" height="25px" viewBox="0 0 25 25" enable-background="new 0 0 25 25" xml:space="preserve">
<g>
	<path fill="#211915" d="M109.459,6.349c0-1.398-1.927-2.849-3.325-2.849H98.83c-1.399,0-3.326,1.451-3.326,2.849v1.037h13.955
		V6.349z"/>
	<path fill="#211915" d="M111.49,14.555c0-1.555-1.388-2.129-1.388-2.129s0-2.21,0-3.032s-0.645-0.753-0.645-0.753V8.017h-7.228l0,0
		l-6.7,0.004L95.524,8.64c0,0-0.644-0.069-0.644,0.753s0,3.032,0,3.032s-1.39,0.575-1.39,2.129c0,1.557,1.971,3.029,1.971,3.029
		s-0.159,1.586,1.188,2.588c1.349,1.006,3.307,0.557,3.94-0.078c0,0,0-1.768,0-1.957c0-0.191,0.013-0.611,0.548-0.633
		c0.594-0.021,0.628,0.502,0.628,0.502s-0.015-0.814,0.725-0.814c0.738,0,0.724,0.814,0.724,0.814s0.023-0.502,0.546-0.502
		c0.535,0,0.631,0.438,0.631,0.633s0,1.957,0,1.957c0.635,0.635,2.592,1.084,3.94,0.078c1.349-1.002,1.189-2.588,1.189-2.588
		S111.49,16.111,111.49,14.555z M98.396,19.486c-0.541,0-0.978-0.438-0.978-0.977c0-0.541,0.437-0.979,0.978-0.979
		s0.979,0.438,0.979,0.979C99.376,19.049,98.938,19.486,98.396,19.486z M97.947,14.764c0,0,0.688-0.027,1.381-0.414v0.625
		C98.778,15.059,98.216,15.02,97.947,14.764z M101.191,14.213c-0.313,0.156-0.61,0.342-0.925,0.49
		c-0.091,0.045-0.194,0.084-0.303,0.121v-0.938c0.383-0.309,0.798-0.58,1.228-0.777V14.213z M98.674,11.692
		c-0.872,0.476-1.493-0.238-1.652-0.806c-0.158-0.568-0.238-1.598-0.238-1.598h4.998C101.317,9.763,99.546,11.216,98.674,11.692z
		 M103.109,13.924c-0.201-0.027-0.424-0.033-0.72-0.033c-0.201,0-0.386,0.029-0.563,0.074v-1.086
		c0.237-0.063,0.479-0.098,0.72-0.098c0.197,0,0.385,0.025,0.563,0.066V13.924z M105.04,14.781
		c-0.245-0.082-0.495-0.197-0.748-0.355c-0.214-0.133-0.389-0.232-0.548-0.309v-1.043c0.422,0.201,0.79,0.473,1.123,0.699
		c0.051,0.033,0.11,0.07,0.173,0.109V14.781z M106.587,19.486c-0.54,0-0.979-0.438-0.979-0.977c0-0.541,0.439-0.979,0.979-0.979
		c0.539,0,0.979,0.438,0.979,0.979C107.565,19.049,107.126,19.486,106.587,19.486z M105.675,14.941v-0.703
		c0.604,0.316,1.255,0.604,1.374,0.604c0.179,0,0.218,0.258-0.496,0.199C106.267,15.018,105.973,14.992,105.675,14.941z
		 M107.961,10.886c-0.159,0.568-0.78,1.282-1.652,0.806c-0.872-0.476-2.645-1.929-3.106-2.404h4.997
		C108.199,9.288,108.12,10.317,107.961,10.886z"/>
	<path fill="#211915" d="M101.168,17.635c-0.264,0-0.477,0.215-0.477,0.477v2.221c0,0.262,0.213,0.475,0.477,0.475
		c0.263,0,0.477-0.213,0.477-0.475v-2.221C101.645,17.85,101.431,17.635,101.168,17.635z"/>
	<path fill="#211915" d="M103.785,17.635c-0.263,0-0.477,0.215-0.477,0.477v2.221c0,0.262,0.214,0.475,0.477,0.475
		c0.264,0,0.477-0.213,0.477-0.475v-2.221C104.262,17.85,104.049,17.635,103.785,17.635z"/>
	<path fill="#211915" d="M102.486,17.328c-0.328,0-0.595,0.268-0.595,0.594v2.984c0,0.328,0.267,0.594,0.595,0.594
		s0.595-0.266,0.595-0.594v-2.984C103.081,17.596,102.814,17.328,102.486,17.328z"/>
</g>
<g>
	<path fill="#211915" d="M-72.915,9.368h-9.189l-0.046,9.174l1.3,1.3h6.692l1.243-1.243V9.368z M-75.516,14.569h-3.988
		c-0.368,0-0.668-0.299-0.668-0.668c0-0.37,0.3-0.669,0.668-0.669h3.988c0.37,0,0.669,0.299,0.669,0.669
		C-74.847,14.271-75.146,14.569-75.516,14.569z M-75.516,11.938h-3.988c-0.368,0-0.668-0.299-0.668-0.668
		c0-0.37,0.3-0.668,0.668-0.668h3.988c0.37,0,0.669,0.299,0.669,0.668C-74.847,11.639-75.146,11.938-75.516,11.938z"/>
	<path fill="#211915" d="M-72.84,7.799c0-2.558-2.073-4.633-4.631-4.633c-2.559,0-4.638,2.075-4.638,4.633c0,0.233,0,0.619,0,0.849
		h9.271C-72.837,8.417-72.84,8.032-72.84,7.799z M-77.498,6.819c-0.728,0-1.316-0.589-1.316-1.316c0-0.727,0.589-1.315,1.316-1.315
		c0.726,0,1.314,0.588,1.314,1.315C-76.184,6.23-76.772,6.819-77.498,6.819z M-74.847,7.785c-0.362,0-0.658-0.295-0.658-0.657
		c0-0.363,0.296-0.658,0.658-0.658c0.363,0,0.658,0.294,0.658,0.658C-74.188,7.49-74.483,7.785-74.847,7.785z"/>
	<path fill="#211915" d="M-69.604,18.53c0,0,0-6.333,0-7.744c0-1.412-1.247-1.48-1.247-1.48h-1.363l-0.007,9.251l-1.37,3.275h5.289
		L-69.604,18.53z"/>
	<path fill="#211915" d="M-82.786,9.307h-1.362c0,0-1.248,0.068-1.248,1.48c0,1.411,0,7.744,0,7.744l-1.302,3.303h5.29l-1.371-3.275
		L-82.786,9.307z"/>
</g>
<g>
	<path fill-rule="evenodd" clip-rule="evenodd" fill="#211915" d="M57.667,10.032c0.695,0.71,0.175,2.637,1.076,3.141
		c-0.006-1.71-0.125-3.621-0.358-5.294c-0.151-1.09-0.489-2.058-0.538-3.143c-0.119,0-0.239,0-0.359,0
		c-0.512,2.6-0.973,5.25-0.897,8.437C57.498,12.676,56.87,10.64,57.667,10.032z"/>
	<path fill-rule="evenodd" clip-rule="evenodd" fill="#211915" d="M54.796,14.519c0.217-1.009,0.791-1.661,1.614-2.063
		c-0.069-0.938,0.13-1.606,0.09-2.513c-0.364,0.024-0.608,0.168-0.897,0.269c0.111,0.337,0.367,1.078,0,1.346
		c-0.715,0.088-0.785-0.472-1.166-0.719c-0.276,0.443-0.78,0.656-0.987,1.167c0.423,0.116,0.599,0.479,0.717,0.898
		c-0.153,0.46-1.029,0.251-1.345,0.089c-0.104,0.494-0.346,0.852-0.359,1.436C53.169,14.688,53.993,14.758,54.796,14.519z"/>
	<path fill-rule="evenodd" clip-rule="evenodd" fill="#211915" d="M58.924,12.456c0.823,0.402,1.364,1.088,1.614,2.063
		c0.808,0.242,1.609,0.151,2.335-0.09c-0.071-0.527-0.236-0.96-0.359-1.436c-0.343,0.116-1.306,0.445-1.346-0.179
		c0.022-0.515,0.548-0.529,0.628-0.988c-0.318-0.31-0.523-0.733-0.987-0.897c-0.392,0.207-0.473,0.724-1.168,0.628
		c-0.214-0.375-0.056-1.044,0.091-1.346c-0.307-0.082-0.557-0.222-0.897-0.269C58.764,10.88,58.963,11.548,58.924,12.456z"/>
	<path fill-rule="evenodd" clip-rule="evenodd" fill="#211915" d="M59.911,14.519c-1.531-0.77-2.053-2.071-2.154-4.307
		c-0.464,0.694-0.275,1.398-0.448,1.974c-0.265,0.881-0.869,1.734-1.706,2.243c-1.767,1.077-5.495-0.196-6.91,1.437
		c0,0.06,0,0.12,0,0.18c0.398,0.47,0.696,1.038,1.076,1.525c1.26-1.11,2.772-1.598,4.668-1.346c1.696,0.226,2.104,1.834,3.948,1.436
		c1.146-2.013,5.857-1.776,7.18-0.09c0.336-0.562,0.76-1.034,1.077-1.614c0-0.031,0-0.061,0-0.091
		C65.179,14.234,61.828,15.483,59.911,14.519z M58.115,16.404c-1.638,0.402-2.766-2.159-0.896-2.692
		c0.423-0.121,0.623-0.158,0.896-0.091C58.978,13.832,59.727,16.009,58.115,16.404z"/>
	<path fill-rule="evenodd" clip-rule="evenodd" fill="#211915" d="M57.309,13.98c-1.55,0.45-0.544,2.555,0.807,2.154
		C59.303,15.783,58.948,13.505,57.309,13.98z M57.577,15.956c-0.976-0.063-1.196-1.502-0.18-1.796
		C58.849,13.741,58.896,16.039,57.577,15.956z"/>
	<path fill-rule="evenodd" clip-rule="evenodd" fill="#211915" d="M60.18,16.673c-0.534,0.261-0.805,0.878-1.256,1.077
		c-1.43,0.637-2.976-0.011-3.68-1.077c-0.774-0.168-1.796-0.417-2.692-0.18c0.097,0.321,0.108,0.729,0.27,0.988
		c1.759-0.409,2.87,0.421,3.409,1.704c0.104,0.247,0.158,0.843,0.27,0.988c0.037,0.046,0.512-0.104,0.45,0.09
		c0.478,0,0.956,0,1.435,0c0.023-0.188,0.395-0.025,0.449-0.18c0.205-1.818,1.487-2.975,3.59-2.603
		c0.344-0.106,0.18-0.718,0.358-0.988C61.97,16.393,60.903,16.321,60.18,16.673z"/>
</g>
<path fill-rule="evenodd" clip-rule="evenodd" fill="#211915" d="M13.245,3.728c-0.488,0-0.977,0-1.464,0
	c-4.586,0.615-8.4,4.035-8.027,9.591c0.155,2.3,1.27,4.074,2.577,5.38c1.397,1.394,3.103,2.313,5.45,2.573c0.487,0,0.976,0,1.464,0
	c4.573-0.68,7.203-3.298,8.026-7.72c0-0.701,0-1.403,0-2.104C20.448,7.024,17.818,4.406,13.245,3.728z M13.011,4.605
	c2.915,0.327,4.861,1.619,6.094,3.625c-0.108,0.008-0.196,0.038-0.235,0.117c-0.454-0.249-0.658-0.745-0.996-1.111
	c-0.249,0.16-0.395,0.425-0.644,0.585c-0.867-0.713-1.784-1.377-3.048-1.696c0.092-0.26,0.165-0.536,0.234-0.818
	c-0.401-0.165-0.904-0.227-1.464-0.234C12.959,4.904,12.921,4.69,13.011,4.605z M11.956,4.605c0.23-0.035,0.069,0.32,0.118,0.468
	c-0.575-0.027-0.967,0.128-1.466,0.175c0.088,0.263,0.107,0.595,0.233,0.819c-1.18,0.419-2.193,1.007-3.046,1.754
	C7.577,7.67,7.434,7.443,7.211,7.294C6.745,7.533,6.649,8.138,6.155,8.347C6.117,8.269,6.031,8.238,5.922,8.23
	C7.147,6.237,9.089,4.959,11.956,4.605z M5.511,16.066c-1.184-1.652-1.121-5.399-0.059-7.135C5.575,8.984,5.627,9.11,5.805,9.108
	c-0.118,0.506-0.406,0.841-0.469,1.404c0.229,0.122,0.503,0.199,0.819,0.234c-0.313,0.972-0.313,2.535,0,3.508
	C5.819,14.25,5.66,14.421,5.336,14.43c0.036,0.607,0.351,0.936,0.469,1.462C5.668,15.911,5.553,15.951,5.511,16.066z M12.074,20.394
	c-2.956-0.306-4.904-1.617-6.152-3.626c0.652-0.318,0.772,0.692,1.229,0.937c0.299-0.091,0.397-0.384,0.645-0.526
	c0.875,0.707,1.78,1.381,3.046,1.696c-0.108,0.241-0.124,0.576-0.233,0.817c0.402,0.165,0.905,0.229,1.466,0.234
	C12.074,20.083,12.074,20.238,12.074,20.394z M11.545,17.646c0.157-0.838,0.336-1.654,0.47-2.515
	c-0.554-0.247-1.162-0.439-1.465-0.937c-0.699,0.53-1.326,1.133-1.992,1.697c-0.471-0.408-0.771-0.985-0.996-1.638
	c0.794-0.319,1.667-0.558,2.461-0.877c-0.151-0.425-0.188-1.28,0-1.697c-0.707-0.423-1.681-0.583-2.461-0.934
	c0.2-0.659,0.552-1.165,0.938-1.638c0.711,0.519,1.337,1.122,1.99,1.695c0.407-0.395,0.843-0.757,1.524-0.877
	c-0.114-0.898-0.315-1.712-0.47-2.573c0.52-0.154,1.422-0.176,1.934,0c-0.149,0.845-0.327,1.661-0.468,2.515
	c0.576,0.224,1.154,0.446,1.465,0.935c0.757-0.511,1.305-1.232,2.109-1.695c0.305,0.533,0.71,0.968,0.879,1.638
	c-0.791,0.321-1.664,0.561-2.463,0.876c0.175,0.527,0.216,1.186,0,1.696c0.713,0.42,1.686,0.581,2.463,0.936
	c-0.169,0.669-0.574,1.104-0.879,1.638c-0.776-0.473-1.368-1.13-2.051-1.697c-0.414,0.389-0.819,0.782-1.523,0.879
	c0.122,0.892,0.322,1.705,0.468,2.572C12.967,17.82,12.064,17.801,11.545,17.646z M12.952,20.336c0-0.137,0-0.273,0-0.41
	c0.573,0.027,0.965-0.128,1.464-0.176c-0.046-0.304-0.12-0.58-0.234-0.818c1.143-0.438,2.216-0.947,2.989-1.754
	c0.374,0.009,0.406,0.584,0.645,0.585c0.366,0.003,0.721-1.51,1.289-0.995C17.889,18.752,15.816,20.191,12.952,20.336z
	 M19.572,16.009c-0.171,0.014-0.179-0.133-0.352-0.117c0.107-0.519,0.431-0.818,0.47-1.403c-0.205-0.128-0.489-0.176-0.763-0.234
	c0.225-1.076,0.225-2.433,0-3.508c0.292-0.021,0.461-0.164,0.763-0.176c-0.013-0.631-0.362-0.925-0.47-1.462
	c0.187,0.009,0.195-0.155,0.411-0.117C20.629,10.833,20.694,14.247,19.572,16.009z"/>
<path fill-rule="evenodd" clip-rule="evenodd" fill="#211915" d="M184.104,12.42c0.298-3.074,1.796-5.259,3.785-6.445
	c-0.71,1.195-1.59,2.319-1.656,4.021c-0.076,1.962,1.127,3.771,2.425,4.198c2.981,0.982,3.502-3.841,1.951-5.676
	c-0.336-0.397-0.73-0.628-1.183-1.005c0.302-0.348,0.551-0.75,0.886-1.064c0.56,0.407,0.898,1.033,1.419,1.478
	c-0.113-0.91-0.399-1.649-0.768-2.306c0.477-0.686,1.015-1.31,1.537-1.951c0.582,0.619,1.105,1.299,1.596,2.01
	c-0.436,0.549-0.672,1.298-0.768,2.188c0.456-0.234,0.767-1.125,1.418-1.359c0.334,0.297,0.612,0.649,0.828,1.063
	c-0.325,0.232-0.679,0.435-0.945,0.709c-1.259,1.294-1.654,4.541-0.06,5.676c1.965,1.398,3.993-1.305,4.198-3.311
	c0.222-2.172-1.031-3.492-1.597-4.73c1.936,1.357,3.326,3.256,3.726,6.149c0,0.572,0,1.144,0,1.715
	c-0.724,4.367-3.942,7.984-9.343,7.509c-2.023-0.177-3.902-1.252-5.084-2.483c-1.25-1.3-2.167-3.166-2.366-5.38
	C184.104,13.09,184.104,12.755,184.104,12.42z"/>
<g>
	<path fill-rule="evenodd" clip-rule="evenodd" fill="#211915" d="M243.228,15.948c1.235-1.346,1.769-4.697,0.547-6.473
		c0.542,1.762-0.389,3.776-1.276,4.376c1.797-2.474,0.332-6.901-1.733-7.659c1.793,1.393,0.445,4.48-0.638,5.653
		c1.724,2.488,0.313,6.266-2.097,7.021c0.017-0.897,0.006-1.769-0.091-2.553c0.373,0.177,0.706,0.871,1.003,0.82
		c-0.207-0.361-0.641-0.911-0.548-1.276c0.598-0.041,1.197-0.08,1.642-0.273c-0.589-0.11-1.368-0.029-1.732-0.364
		c0.176-0.404,0.506-1.134,0.456-1.459c-0.237,0.341-0.553,1.086-0.82,1.094c-0.053-2.713-0.182-5.35-0.183-8.115
		c0.012-0.119,0.014-0.659-0.092-0.364c0,0.212,0,0.426,0,0.638c-0.061,2.644-0.185,5.225-0.182,7.932
		c-0.416-0.282-0.556-0.842-0.912-1.185c0.069,0.585,0.558,1.183,0.456,1.642c-0.629,0.01-1.183,0.093-1.641,0.272
		c0.58,0.058,1.154,0.123,1.641,0.273c-0.131,0.416-0.313,0.781-0.547,1.095c0.183,0.426,0.711-0.785,0.912-0.639
		c-0.061,0.791,0.12,1.823-0.092,2.462c-2.403-0.806-3.64-4.485-2.097-7.111c-1.201-1.082-2.089-4.293-0.729-5.562
		c-2.212,1.247-3.281,5.464-1.459,7.933c-1.089-0.927-1.827-2.938-1.459-4.741c-1.08,1.957-0.626,5.259,0.639,6.654
		c-0.623-0.471-0.886-1.302-1.276-2.005c0.586,3.228,2.736,5.345,6.291,5.563c3.956,0.242,6.803-2.151,7.202-5.563
		C244.17,14.765,243.663,15.716,243.228,15.948z"/>
	<path fill-rule="evenodd" clip-rule="evenodd" fill="#211915" d="M237.712,3.61c-4.908,0-8.889,3.98-8.889,8.889
		c0,4.91,3.98,8.891,8.889,8.891c4.909,0,8.89-3.98,8.89-8.891C246.602,7.59,242.621,3.61,237.712,3.61z M237.712,20.326
		c-4.321,0-7.825-3.505-7.825-7.827c0-4.321,3.504-7.826,7.825-7.826c4.322,0,7.826,3.504,7.826,7.826
		C245.538,16.821,242.034,20.326,237.712,20.326z"/>
</g>
<g>
	<path fill="#211915" d="M-114.989,15.598v-0.315h-1.324v-0.667h2.902c0.123-0.55,0.197-1.117,0.218-1.697h-18.676
		c0.176,5.005,4.288,9.01,9.338,9.01c0.742,0,1.465-0.088,2.157-0.252v-0.365h-0.668v-0.667h2.087v-0.668h0.603V19.31h2.039v-0.667
		h0.657v-0.667h-1.334v-0.418h-0.003v-0.273h-1.962v-0.668h1.298V15.95h2.665v-0.353H-114.989z"/>
	<g>
		<path fill="#211915" d="M-113.423,10.491h-3.567V9.823h1.334V9.157h-2.696V8.49h2.037V8.113h0.002V7.822h-0.677V7.156h-1.362
			V6.489h0.695V6.418h-0.001V5.821h-1.297V5.155h0.603V4.224c-1.257-0.629-2.678-0.984-4.179-0.984c-5.05,0-9.162,4.004-9.338,9.009
			h18.675C-113.215,11.647-113.293,11.059-113.423,10.491z M-125.699,10.491c-1.474,0-2.668-1.195-2.668-2.668
			s1.194-2.667,2.668-2.667s2.668,1.194,2.668,2.667S-124.226,10.491-125.699,10.491z"/>
	</g>
</g>
<polygon fill="#FFFFFF" points="-399.142,1517.584 -399.142,1501.503 -356.664,1501.503 -356.667,1501.499 -399.188,1501.499 
	-399.188,1517.584 "/>
<path fill="#211915" d="M-23.286,17.441c-0.208-0.591-2.504-6.574-2.504-6.574L-25.817,7.7c0,0-0.527-4.891-6.614-4.688
	c-0.051,0.001-0.101,0.003-0.149,0.008c-0.05-0.005-0.1-0.007-0.148-0.008C-38.817,2.809-39.346,7.7-39.346,7.7l-0.026,3.168
	c0,0-2.297,5.983-2.504,6.574c-0.209,0.59,0.167,0.866,0.167,0.866c3.255,2.682,6.392,3.555,9.128,3.525
	c2.736,0.029,5.873-0.844,9.128-3.525C-23.453,18.308-23.077,18.031-23.286,17.441z M-36.957,11.52
	c0.215-0.43,0.645-1.182,2.135-1.154c0,0,1.582-0.082,1.671,1.302l-0.006,0.846c0,0,0.107,0.43-0.604,0.456h-2.914
	c0,0-0.457-0.093-0.442-0.456C-37.118,12.514-37.172,11.949-36.957,11.52z M-36.56,19.517c-0.278,0-0.504-0.225-0.504-0.503
	c0-0.279,0.226-0.505,0.504-0.505s0.504,0.226,0.504,0.505C-36.056,19.292-36.281,19.517-36.56,19.517z M-34.569,19.014H-35.2V17.61
	l0.631-0.631V19.014z M-32.891,19.014h-0.953v-2.666h0.953V19.014z M-32.491,15.631h-0.948v-0.949c0-0.074,0.009-0.146,0.025-0.215
	c0.097-0.42,0.473-0.734,0.923-0.734s0.826,0.314,0.924,0.734c0.016,0.069,0.025,0.141,0.025,0.215v0.949H-32.491z M-31.266,19.014
	h-0.954v-2.666h0.954V19.014z M-29.909,19.014h-0.631v-2.034l0.631,0.631V19.014z M-28.584,19.517c-0.277,0-0.503-0.225-0.503-0.503
	c0-0.279,0.226-0.505,0.503-0.505c0.278,0,0.504,0.226,0.504,0.505C-28.08,19.292-28.306,19.517-28.584,19.517z M-27.827,12.514
	c0.014,0.363-0.442,0.456-0.442,0.456h-2.914c-0.712-0.026-0.604-0.456-0.604-0.456l-0.006-0.846
	c0.089-1.384,1.671-1.302,1.671-1.302c1.49-0.028,1.92,0.724,2.135,1.154S-27.827,12.514-27.827,12.514z M-24.297,17.989
	c-0.039,0.017-0.081,0.023-0.122,0.023c-0.128,0-0.249-0.076-0.301-0.201l-2.069-5.056c-0.001-0.003-0.002-0.005-0.003-0.008
	c-0.894-2.373-1.401-2.773-1.457-2.812c-0.021-0.009-0.039-0.021-0.058-0.035c-1.203-0.905-2.484-0.447-2.917-0.247
	c-0.013,0.014-0.025,0.029-0.04,0.042c-0.142,0.12-0.352,0.252-0.603,0.344c-0.212,0.086-0.423,0.12-0.624,0.118
	c-0.202,0.002-0.413-0.032-0.626-0.118c-0.251-0.092-0.46-0.224-0.602-0.344c-0.015-0.013-0.029-0.028-0.041-0.042
	c-0.432-0.201-1.714-0.66-2.917,0.247c-0.018,0.014-0.037,0.026-0.058,0.035c-0.055,0.039-0.563,0.439-1.457,2.812
	c-0.001,0.003-0.001,0.005-0.004,0.008l-2.068,5.056c-0.051,0.125-0.173,0.201-0.301,0.201c-0.04,0-0.082-0.007-0.122-0.023
	c-0.165-0.067-0.246-0.256-0.179-0.42l2.067-5.051c0.91-2.415,1.495-3.008,1.754-3.149c1.788-1.324,3.684-0.242,3.765-0.195
	c0.019,0.012,0.037,0.025,0.054,0.04c0.151,0.138,0.305,0.219,0.452,0.263c0.087,0.023,0.181,0.037,0.281,0.039
	c0.101,0,0.196-0.017,0.285-0.04c0.146-0.043,0.297-0.125,0.448-0.261c0.018-0.015,0.035-0.028,0.055-0.04
	c0.079-0.046,1.975-1.129,3.764,0.195c0.26,0.141,0.845,0.734,1.753,3.149l2.068,5.051C-24.052,17.733-24.131,17.922-24.297,17.989z
	"/>
<g>
	
		<rect x="-173.927" y="16.074" transform="matrix(-0.7069 -0.7073 0.7073 -0.7069 -305.7015 -94.1871)" fill="#211915" width="3.122" height="0.349"/>
	
		<rect x="-174.468" y="16.617" transform="matrix(-0.7075 -0.7067 0.7067 -0.7075 -307.1057 -93.5268)" fill="#211915" width="3.122" height="0.346"/>
	
		<rect x="-173.388" y="15.536" transform="matrix(-0.707 -0.7072 0.7072 -0.707 -304.4222 -94.6975)" fill="#211915" width="3.122" height="0.346"/>
	<path fill="#211915" d="M-176.506,18.182c-0.503,0.503-0.418,1.406,0.191,2.015c0.609,0.609,1.512,0.696,2.017,0.191l2.076-2.074
		l-2.208-2.208L-176.506,18.182z"/>
	<path fill="#211915" d="M-169.692,15.447c0.027-0.231-0.002-0.474-0.088-0.713c-0.084-0.236-0.205-0.469-0.405-0.668
		c-0.216-0.217-0.471-0.341-0.732-0.423c-0.218-0.069-0.435-0.087-0.642-0.063l-0.178-0.177c-0.143-0.146-0.379-0.143-0.527,0.006
		c-0.082,0.082-0.106,0.192-0.095,0.299l-0.152,0.477l2.208,2.207l0.475-0.149c0.108,0.01,0.218-0.015,0.301-0.098
		c0.148-0.146,0.151-0.383,0.008-0.525L-169.692,15.447z"/>
	<path fill="#211915" d="M-165.253,13.531c0.252-0.251,0.548-0.407,0.847-0.517l-1.788-1.689l5.667-5.996
		c0.238-0.238,0.238-0.626,0-0.867c-0.238-0.238-0.626-0.238-0.866,0l-6.066,5.667l-6.022-5.693c-0.238-0.238-0.627-0.238-0.866,0
		c-0.238,0.238-0.238,0.627,0,0.867l5.617,6.014l-1.824,1.704c0.333,0.103,0.658,0.263,0.933,0.537
		c0.252,0.252,0.407,0.549,0.517,0.848l1.64-1.733l1.675,1.793C-165.688,14.133-165.528,13.807-165.253,13.531z"/>
	
		<rect x="-164.123" y="16.103" transform="matrix(0.7068 -0.7074 0.7074 0.7068 -59.1784 -110.2272)" fill="#211915" width="3.123" height="0.347"/>
	
		<rect x="-163.581" y="16.643" transform="matrix(0.7073 -0.707 0.707 0.7073 -59.3186 -109.6177)" fill="#211915" width="3.121" height="0.349"/>
	
		<rect x="-164.663" y="15.562" transform="matrix(0.7074 -0.7068 0.7068 0.7074 -58.8425 -110.6755)" fill="#211915" width="3.121" height="0.348"/>
	<path fill="#211915" d="M-158.423,18.208l-2.074-2.076l-2.209,2.208l2.077,2.076c0.502,0.503,1.405,0.417,2.015-0.191
		C-158.006,19.615-157.918,18.712-158.423,18.208z"/>
	<path fill="#211915" d="M-162.568,13.737c0.009-0.108-0.014-0.218-0.098-0.301c-0.146-0.147-0.383-0.149-0.524-0.007l-0.173,0.173
		c-0.231-0.028-0.476,0.001-0.714,0.086c-0.237,0.086-0.468,0.206-0.668,0.405c-0.216,0.217-0.341,0.473-0.423,0.733
		c-0.07,0.218-0.087,0.435-0.063,0.643l-0.178,0.176c-0.144,0.144-0.141,0.381,0.007,0.528c0.082,0.082,0.191,0.105,0.3,0.096
		l0.477,0.15l2.206-2.207L-162.568,13.737z"/>
</g>
<g>
	<path fill="#211915" d="M148.286,13.813l-0.277-9.797c0-0.265-0.214-0.48-0.48-0.48c-0.264,0-0.479,0.214-0.48,0.48l-0.335,9.833
		c0.242-0.127,0.511-0.22,0.815-0.22C147.809,13.629,148.058,13.708,148.286,13.813z"/>
	<rect x="146.274" y="16.507" fill="#211915" width="2.451" height="0.274"/>
	<rect x="146.274" y="17.109" fill="#211915" width="2.451" height="0.272"/>
	<rect x="146.274" y="15.91" fill="#211915" width="2.451" height="0.272"/>
	<path fill="#211915" d="M146.274,20.016c0,0.557,0.548,1.011,1.225,1.011c0.675,0,1.227-0.454,1.227-1.014v-2.301h-2.451V20.016z"
		/>
	<path fill="#211915" d="M148.729,14.717h-0.19c-0.113-0.144-0.266-0.263-0.443-0.348c-0.18-0.084-0.375-0.146-0.597-0.146
		c-0.24,0-0.451,0.071-0.641,0.172c-0.161,0.08-0.29,0.192-0.393,0.321h-0.196c-0.159-0.002-0.288,0.132-0.288,0.296
		c0,0.091,0.047,0.165,0.113,0.219l0.18,0.35l2.451-0.001l0.179-0.348c0.064-0.055,0.113-0.128,0.113-0.221
		C149.018,14.849,148.889,14.717,148.729,14.717z"/>
</g>
<path fill-rule="evenodd" clip-rule="evenodd" fill="#211915" d="M287.048,4.698h-9.009l-4.504,7.802l4.504,7.803h9.009l4.506-7.803
	L287.048,4.698z M289.956,12.308h-4.816l-1.141-1.976l2.434-4.126L289.956,12.308z M281.327,10.156l-2.386-4.17h7.242l-2.461,4.17
	H281.327z M286.019,19.016h-7.141l2.46-4.171h2.295L286.019,19.016z M278.673,6.175l2.396,4.19l-1.12,1.942h-4.816L278.673,6.175z
	 M275.1,12.634h4.815l1.161,2.011l-2.434,4.127L275.1,12.634z M286.351,18.938l-2.397-4.191l1.221-2.113h4.815L286.351,18.938z"/>
<circle fill-rule="evenodd" clip-rule="evenodd" fill="#211915" cx="462.072" cy="12.832" r="3.052"/>
<path fill="#211915" d="M467.601,13.766l3.864-0.934l-3.89-1.133l1.354-0.959l-3.922-0.533c0.499,0.692,0.805,1.612,0.805,2.625
	c0,0.903-0.244,1.732-0.65,2.393l3.792-0.449L467.601,13.766z"/>
<path fill="#211915" d="M456.616,13.766l-3.864-0.934l3.89-1.133l-1.354-0.959l3.922-0.533c-0.498,0.692-0.805,1.612-0.805,2.625
	c0,0.903,0.244,1.732,0.65,2.393l-3.792-0.449L456.616,13.766z"/>
<path fill="none" d="M552.989,54.936v-2.148c-0.302-0.039-0.608-0.063-0.921-0.063c-0.353,0-0.699,0.027-1.037,0.078v2.133h-1.412
	v-1.764c-2.619,0.988-4.482,3.52-4.482,6.485c0,3.828,3.104,6.933,6.932,6.933S559,63.485,559,59.657c0-3.011-1.918-5.571-4.6-6.529
	v1.808H552.989z"/>
<g>
	<circle fill-rule="evenodd" clip-rule="evenodd" fill="#211915" cx="598.057" cy="14.221" r="2.223"/>
	<polygon fill-rule="evenodd" clip-rule="evenodd" fill="#211915" points="595.834,7.241 596.849,6.54 596.849,8.89 	"/>
	<polygon fill-rule="evenodd" clip-rule="evenodd" fill="#211915" points="600.149,7.241 599.135,6.54 599.135,8.89 	"/>
	<path fill="#211915" d="M602.339,16.555l2.911,0.556l-2.494-1.588c0.074-0.267,0.127-0.54,0.154-0.823l2.043-0.538l-2.051-0.48
		c-0.031-0.28-0.086-0.555-0.162-0.818l2.459-1.657l-2.889,0.63c-0.138-0.245-0.296-0.477-0.472-0.693l1.072-1.82l-1.794,1.102
		c-0.232-0.187-0.481-0.354-0.746-0.497l0.543-2.913l-1.438,2.282v0.951c1.632,0.583,2.8,2.141,2.8,3.974
		c0,2.329-1.89,4.22-4.219,4.22c-2.33,0-4.219-1.891-4.219-4.22c0-1.805,1.134-3.345,2.728-3.947v-0.98l-1.484-2.231l0.614,2.893
		c-0.245,0.136-0.478,0.292-0.694,0.467l-1.816-1.082l1.093,1.8c-0.188,0.231-0.356,0.479-0.5,0.743l-2.911-0.559l2.492,1.588
		c-0.073,0.267-0.125,0.543-0.154,0.824l-2.043,0.536l2.049,0.482c0.031,0.28,0.087,0.555,0.164,0.819l-2.461,1.653l2.89-0.627
		c0.136,0.244,0.294,0.477,0.47,0.692l-1.072,1.821l1.794-1.103c0.232,0.188,0.48,0.355,0.744,0.499l-0.545,2.912l1.578-2.501
		c0.267,0.074,0.542,0.124,0.825,0.151l0.545,2.041l0.473-2.052c0.267-0.031,0.527-0.083,0.778-0.154l1.646,2.467l-0.616-2.892
		c0.245-0.137,0.477-0.293,0.694-0.469l1.816,1.08l-1.095-1.798C602.027,17.066,602.195,16.817,602.339,16.555z"/>
	<path fill="#211915" d="M598.058,10.001c0.19,0,0.376,0.015,0.56,0.038V9.379c-0.011-0.001-0.021-0.004-0.031-0.005l-0.528-5.163
		l-0.619,5.175c-0.004,0-0.009,0.001-0.013,0.001v0.662C597.632,10.018,597.843,10.001,598.058,10.001z"/>
</g>
<g>
	<path fill-rule="evenodd" clip-rule="evenodd" fill="#211915" d="M507.477,3.736c-4.84,0-8.763,3.923-8.763,8.763
		c0,4.839,3.923,8.764,8.763,8.764s8.765-3.925,8.765-8.764C516.241,7.66,512.316,3.736,507.477,3.736z M507.477,20.466
		c-4.399,0-7.966-3.565-7.966-7.966c0-4.399,3.566-7.966,7.966-7.966c4.401,0,7.967,3.567,7.967,7.966
		C515.443,16.9,511.878,20.466,507.477,20.466z"/>
	<path fill="#211915" d="M511.685,8.992l1.473-1.483l-1.646,1.305C511.571,8.873,511.629,8.933,511.685,8.992z"/>
	<path fill="#211915" d="M514.868,10.73l-1.947,0.37c0.023,0.074,0.048,0.148,0.069,0.224L514.868,10.73z"/>
	<path fill="#211915" d="M504.811,19.731l0.658-1.488c-0.06-0.022-0.12-0.046-0.18-0.07L504.811,19.731z"/>
	<path fill="#211915" d="M504.474,8.06l-1.357-1.718l1.137,1.854c0.031-0.02,0.062-0.04,0.094-0.06L504.474,8.06z"/>
	<path fill="#211915" d="M500.747,16.167l1.628-0.745c-0.031-0.064-0.064-0.126-0.093-0.19L500.747,16.167z"/>
	<path fill="#211915" d="M508.435,20.153l-0.109-1.62c-0.063,0.008-0.126,0.016-0.189,0.021L508.435,20.153z"/>
	<path fill="#211915" d="M510.216,19.703l-0.493-1.548c-0.059,0.024-0.119,0.049-0.179,0.071L510.216,19.703z"/>
	<path fill="#211915" d="M514.208,9.016l-1.855,0.85c0.042,0.068,0.082,0.138,0.121,0.208L514.208,9.016z"/>
	<path fill="#211915" d="M504.485,8.574l1.313,2.142l-1.773-1.378c-0.059,0.104-0.111,0.21-0.162,0.318l1.535,1.515l-1.788-0.795
		c-0.028,0.126-0.049,0.26-0.062,0.399l1.57,0.936l-1.564-0.28c0.021,0.161,0.056,0.317,0.1,0.468l1.322,0.402l-1.137,0.074
		c0.088,0.179,0.189,0.342,0.303,0.489l0.837,0.044l-0.626,0.198c0.198,0.198,0.415,0.343,0.629,0.419l0.146-0.028l-0.078,0.048
		c0.138,0.041,0.271,0.065,0.393,0.065c0.515,0,0.796-0.374,0.94-0.688c0.36-0.776,0.281-1.935-0.148-2.632l-0.25-0.316
		c-0.109-0.107-0.229-0.197-0.362-0.299c-0.092-0.07-0.187-0.143-0.288-0.226l-0.143-0.121l0.122-0.142
		c0.009-0.01,0.017-0.02,0.024-0.03l-0.682-0.865l-0.058,0.098C504.563,8.45,504.522,8.511,504.485,8.574z"/>
	<path fill="#211915" d="M503.41,8.859l-1.663-1.292l1.489,1.471C503.293,8.976,503.351,8.917,503.41,8.859z"/>
	<path fill="#211915" d="M501.798,17.673l1.344-1.065c-0.044-0.052-0.088-0.103-0.13-0.156L501.798,17.673z"/>
	<path fill="#211915" d="M500.711,9.083l1.753,1.044c0.038-0.071,0.076-0.142,0.117-0.211L500.711,9.083z"/>
	<path fill="#211915" d="M500.068,10.805l1.904,0.58c0.02-0.077,0.04-0.153,0.063-0.228L500.068,10.805z"/>
	<path fill="#211915" d="M500.086,14.453l1.824-0.346c-0.016-0.073-0.032-0.144-0.046-0.216L500.086,14.453z"/>
	<path fill="#211915" d="M501.768,12.506l-1.912,0.124l1.907,0.103v-0.193C501.765,12.528,501.766,12.518,501.768,12.506z"/>
	<path fill="#211915" d="M506.688,18.546l-0.092,1.617l0.282-1.599c-0.014,0-0.028-0.002-0.041-0.002
		C506.787,18.559,506.738,18.552,506.688,18.546z"/>
	<path fill="#211915" d="M503.179,18.886l1.017-1.314c-0.053-0.037-0.106-0.076-0.159-0.115L503.179,18.886z"/>
	<path fill="#211915" d="M506.521,5.03l0.162,2.43c0.079-0.1,0.158-0.199,0.237-0.295L506.521,5.03z"/>
	<path fill="#211915" d="M508.357,5.021l-0.364,2.065c0.076,0.093,0.154,0.188,0.231,0.289L508.357,5.021z"/>
	<polygon fill="#211915" points="515.099,12.553 513.19,12.45 513.19,12.676 	"/>
	<path fill="#211915" d="M513.208,17.616l-1.234-1.217c-0.041,0.054-0.083,0.107-0.125,0.161L513.208,17.616z"/>
	<path fill="#211915" d="M509.739,9.402l-0.13,0.093c-0.062,0.043-0.121,0.084-0.182,0.125c-0.156,0.104-0.301,0.203-0.417,0.322
		c-0.459,0.471-0.738,1.404-0.665,2.218c0.052,0.561,0.264,1.003,0.602,1.242c0.205,0.146,0.418,0.22,0.634,0.22
		c0.129,0,0.255-0.028,0.378-0.075l-0.123-0.074l0.212,0.037c0.204-0.094,0.397-0.245,0.571-0.432l-0.641-0.195l0.85-0.055
		c0.111-0.152,0.212-0.317,0.298-0.49l-1.15-0.062l1.343-0.424c0.047-0.157,0.082-0.314,0.099-0.466l-1.59,0.303l1.591-0.972
		c-0.014-0.135-0.038-0.267-0.069-0.391l-1.808,0.827l1.538-1.549c-0.053-0.108-0.108-0.212-0.165-0.314l-1.777,1.41l1.327-2.213
		c-0.026-0.052-0.055-0.103-0.077-0.154l-0.068-0.148l-0.73,0.944c0.025,0.044,0.054,0.088,0.078,0.134L509.739,9.402z"/>
	<path fill="#211915" d="M514.243,16.099l-1.556-0.927c-0.029,0.066-0.059,0.132-0.088,0.194L514.243,16.099z"/>
	<path fill="#211915" d="M514.886,14.379l-1.771-0.54c-0.015,0.072-0.031,0.143-0.048,0.213L514.886,14.379z"/>
	<path fill="#211915" d="M511.838,18.843l-0.868-1.417c-0.052,0.04-0.104,0.08-0.157,0.118L511.838,18.843z"/>
	<path fill="#211915" d="M510.682,8.122l1.094-1.824l-1.299,1.679l0.183,0.128C510.666,8.111,510.675,8.117,510.682,8.122z"/>
	<path fill="#211915" d="M506.021,8.368l0.047,0.034l-1.328-2.923l1.009,3.168c0.052-0.061,0.104-0.12,0.162-0.174L506.021,8.368z"
		/>
	<path fill="#211915" d="M508.997,8.435l0.081,0.074c0.034,0.031,0.065,0.062,0.098,0.094l0.969-3.15l-1.362,3.075
		c0.036-0.02,0.072-0.04,0.111-0.055L508.997,8.435z"/>
	<path fill-rule="evenodd" clip-rule="evenodd" fill="#211915" d="M501.926,12.567c0.197-2.024,1.184-3.463,2.494-4.245
		c-0.468,0.787-1.048,1.527-1.092,2.648c-0.05,1.292,0.744,2.483,1.597,2.764c1.964,0.647,2.307-2.529,1.286-3.738
		c-0.223-0.261-0.481-0.414-0.778-0.663c0.198-0.228,0.362-0.493,0.582-0.7c0.369,0.268,0.593,0.681,0.935,0.974
		c-0.074-0.6-0.262-1.086-0.504-1.52c0.313-0.451,0.667-0.862,1.011-1.284c0.385,0.408,0.729,0.856,1.052,1.323
		c-0.287,0.362-0.443,0.855-0.506,1.441c0.3-0.154,0.504-0.741,0.935-0.895c0.219,0.195,0.403,0.426,0.545,0.699
		c-0.214,0.154-0.448,0.286-0.623,0.467c-0.83,0.853-1.089,2.991-0.04,3.739c1.295,0.92,2.631-0.859,2.767-2.181
		c0.146-1.431-0.68-2.3-1.052-3.116c1.275,0.894,2.19,2.145,2.453,4.05c0,0.376,0,0.752,0,1.128
		c-0.477,2.876-2.596,5.259-6.152,4.946c-1.334-0.115-2.571-0.825-3.35-1.636c-0.823-0.856-1.427-2.084-1.559-3.544
		C501.926,13.008,501.926,12.789,501.926,12.567z"/>
</g>
<g>
	<path fill-rule="evenodd" clip-rule="evenodd" fill="#211915" d="M372.743,3.926c-4.793,0-8.678,3.885-8.678,8.677
		c0,4.793,3.885,8.678,8.678,8.678c4.792,0,8.677-3.885,8.677-8.678C381.42,7.811,377.535,3.926,372.743,3.926z M372.743,20.492
		c-4.356,0-7.889-3.533-7.889-7.89c0-4.357,3.532-7.888,7.889-7.888c4.355,0,7.888,3.531,7.888,7.888
		C380.631,16.959,377.099,20.492,372.743,20.492z"/>
	<polygon fill-rule="evenodd" clip-rule="evenodd" fill="#211915" points="376.208,18.791 376.079,19.03 376.255,19.235 
		376.023,19.376 376.074,19.643 375.805,19.648 375.714,19.903 375.478,19.775 375.272,19.95 375.13,19.72 374.865,19.771 
		374.857,19.499 374.602,19.41 374.732,19.173 374.556,18.967 374.786,18.826 374.736,18.561 375.007,18.554 375.096,18.299 
		375.334,18.428 375.539,18.251 375.68,18.481 375.946,18.432 375.952,18.703 	"/>
	<polygon fill-rule="evenodd" clip-rule="evenodd" fill="#211915" points="373.523,19.229 373.435,19.483 373.641,19.658 
		373.437,19.835 373.527,20.09 373.262,20.14 373.214,20.405 372.959,20.316 372.785,20.523 372.608,20.317 372.354,20.409 
		372.305,20.144 372.037,20.097 372.127,19.841 371.92,19.667 372.125,19.49 372.033,19.236 372.301,19.186 372.347,18.92 
		372.602,19.009 372.776,18.802 372.953,19.007 373.206,18.916 373.258,19.182 	"/>
	<polygon fill-rule="evenodd" clip-rule="evenodd" fill="#211915" points="370.799,18.614 370.73,18.876 370.952,19.031 
		370.765,19.226 370.878,19.471 370.616,19.544 370.593,19.813 370.331,19.746 370.176,19.967 369.982,19.779 369.736,19.894 
		369.663,19.634 369.395,19.61 369.461,19.347 369.238,19.192 369.428,18.998 369.313,18.753 369.574,18.68 369.598,18.41 
		369.86,18.476 370.016,18.255 370.209,18.443 370.455,18.33 370.527,18.591 	"/>
	<polygon fill-rule="evenodd" clip-rule="evenodd" fill="#211915" points="368.428,17.093 368.41,17.362 368.656,17.476 
		368.505,17.7 368.661,17.92 368.418,18.04 368.443,18.31 368.173,18.29 368.061,18.535 367.835,18.386 367.615,18.541 
		367.496,18.299 367.226,18.325 367.244,18.054 366.999,17.94 367.15,17.717 366.994,17.496 367.236,17.377 367.211,17.107 
		367.481,17.127 367.594,16.88 367.819,17.03 368.04,16.874 368.159,17.118 	"/>
	<polygon fill-rule="evenodd" clip-rule="evenodd" fill="#211915" points="366.776,14.756 366.794,15.025 367.054,15.105 
		366.935,15.349 367.12,15.545 366.896,15.697 366.956,15.959 366.686,15.978 366.607,16.236 366.365,16.118 366.168,16.304 
		366.018,16.078 365.753,16.14 365.734,15.869 365.476,15.79 365.596,15.548 365.41,15.352 365.634,15.2 365.572,14.936 
		365.844,14.918 365.922,14.659 366.165,14.779 366.362,14.593 366.514,14.818 	"/>
	<polygon fill-rule="evenodd" clip-rule="evenodd" fill="#211915" points="366.077,12.003 366.135,12.268 366.403,12.308 
		366.32,12.563 366.534,12.733 366.334,12.916 366.433,13.167 366.168,13.225 366.129,13.492 365.871,13.41 365.703,13.623 
		365.521,13.422 365.269,13.522 365.211,13.259 364.943,13.219 365.026,12.961 364.814,12.793 365.014,12.61 364.913,12.359 
		365.178,12.301 365.217,12.034 365.476,12.114 365.644,11.903 365.826,12.104 	"/>
	<polygon fill-rule="evenodd" clip-rule="evenodd" fill="#211915" points="366.525,9.348 366.594,9.61 366.862,9.64 366.79,9.9 
		367.009,10.06 366.816,10.25 366.926,10.498 366.663,10.565 366.634,10.834 366.374,10.763 366.215,10.981 366.024,10.789 
		365.777,10.898 365.709,10.636 365.439,10.607 365.512,10.346 365.293,10.187 365.485,9.996 365.376,9.749 365.639,9.681 
		365.667,9.412 365.929,9.484 366.088,9.266 366.278,9.458 	"/>
	<polygon fill-rule="evenodd" clip-rule="evenodd" fill="#211915" points="367.861,6.977 367.979,7.22 368.247,7.196 368.229,7.466 
		368.475,7.58 368.323,7.804 368.479,8.025 368.234,8.144 368.26,8.413 367.989,8.393 367.875,8.639 367.651,8.487 367.431,8.643 
		367.312,8.399 367.042,8.423 367.062,8.153 366.816,8.04 366.968,7.815 366.813,7.594 367.056,7.477 367.031,7.207 367.302,7.226 
		367.416,6.98 367.64,7.133 	"/>
	<polygon fill-rule="evenodd" clip-rule="evenodd" fill="#211915" points="369.965,5.451 370.106,5.682 370.372,5.632 
		370.378,5.903 370.633,5.993 370.504,6.23 370.679,6.436 370.448,6.577 370.498,6.843 370.227,6.848 370.137,7.104 369.9,6.974 
		369.693,7.149 369.554,6.918 369.288,6.968 369.282,6.697 369.025,6.607 369.155,6.371 368.98,6.165 369.211,6.024 369.161,5.758 
		369.433,5.752 369.523,5.497 369.761,5.627 	"/>
	<polygon fill-rule="evenodd" clip-rule="evenodd" fill="#211915" points="372.563,4.826 372.741,5.029 372.996,4.935 373.047,5.2 
		373.314,5.245 373.228,5.5 373.437,5.673 373.231,5.852 373.327,6.105 373.062,6.158 373.016,6.424 372.761,6.337 372.588,6.546 
		372.409,6.343 372.155,6.437 372.104,6.172 371.837,6.126 371.925,5.871 371.715,5.698 371.92,5.519 371.825,5.267 372.09,5.214 
		372.135,4.947 372.392,5.034 	"/>
	<polygon fill-rule="evenodd" clip-rule="evenodd" fill="#211915" points="375.089,5.327 375.291,5.506 375.531,5.381 
		375.615,5.639 375.887,5.649 375.832,5.915 376.06,6.061 375.881,6.261 376.005,6.501 375.749,6.587 375.737,6.857 375.472,6.803 
		375.327,7.031 375.124,6.851 374.885,6.977 374.801,6.72 374.529,6.708 374.583,6.443 374.356,6.297 374.536,6.096 374.41,5.856 
		374.668,5.771 374.68,5.5 374.944,5.555 	"/>
	<polygon fill-rule="evenodd" clip-rule="evenodd" fill="#211915" points="377.293,6.8 377.517,6.951 377.738,6.793 377.857,7.036 
		378.126,7.009 378.109,7.28 378.356,7.391 378.207,7.616 378.363,7.836 378.121,7.956 378.147,8.226 377.877,8.208 377.766,8.455 
		377.54,8.305 377.32,8.462 377.199,8.22 376.931,8.246 376.947,7.976 376.703,7.864 376.852,7.639 376.695,7.419 376.937,7.299 
		376.91,7.03 377.18,7.047 	"/>
	<polygon fill-rule="evenodd" clip-rule="evenodd" fill="#211915" points="378.774,9.077 379.008,9.212 379.218,9.043 
		379.353,9.277 379.619,9.234 379.619,9.504 379.873,9.601 379.736,9.835 379.907,10.045 379.674,10.179 379.717,10.446 
		379.446,10.446 379.349,10.699 379.114,10.563 378.904,10.734 378.771,10.5 378.504,10.543 378.504,10.272 378.252,10.176 
		378.387,9.942 378.216,9.732 378.449,9.597 378.406,9.33 378.677,9.33 	"/>
	<polygon fill-rule="evenodd" clip-rule="evenodd" fill="#211915" points="379.221,11.8 379.477,11.885 379.646,11.675 
		379.827,11.876 380.08,11.779 380.135,12.045 380.402,12.087 380.318,12.344 380.527,12.515 380.327,12.695 380.424,12.947 
		380.158,13.002 380.115,13.271 379.858,13.185 379.689,13.395 379.508,13.193 379.256,13.29 379.2,13.025 378.933,12.982 
		379.019,12.727 378.809,12.555 379.01,12.375 378.913,12.122 379.178,12.068 	"/>
	<polygon fill-rule="evenodd" clip-rule="evenodd" fill="#211915" points="378.632,14.561 378.897,14.614 379.04,14.385 
		379.245,14.562 379.482,14.435 379.569,14.691 379.841,14.7 379.788,14.965 380.019,15.109 379.84,15.312 379.968,15.551 
		379.712,15.639 379.703,15.908 379.438,15.856 379.295,16.086 379.09,15.908 378.853,16.036 378.764,15.779 378.494,15.771 
		378.547,15.505 378.316,15.362 378.495,15.158 378.366,14.92 378.623,14.832 	"/>
	<polygon fill-rule="evenodd" clip-rule="evenodd" fill="#211915" points="377.116,16.903 377.387,16.922 377.499,16.676 
		377.725,16.826 377.945,16.669 378.063,16.912 378.334,16.886 378.315,17.157 378.563,17.268 378.411,17.493 378.568,17.714 
		378.325,17.834 378.351,18.104 378.081,18.086 377.969,18.33 377.744,18.181 377.522,18.338 377.402,18.096 377.133,18.121 
		377.151,17.85 376.906,17.738 377.057,17.513 376.899,17.292 377.142,17.173 	"/>
	<path fill-rule="evenodd" clip-rule="evenodd" fill="#211915" d="M367.114,12.482c0.2-2.062,1.204-3.527,2.536-4.321
		c-0.475,0.801-1.064,1.554-1.108,2.695c-0.052,1.315,0.755,2.527,1.625,2.813c1.998,0.66,2.348-2.573,1.307-3.803
		c-0.224-0.266-0.489-0.421-0.792-0.675c0.203-0.233,0.37-0.502,0.595-0.712c0.375,0.272,0.603,0.692,0.951,0.99
		c-0.077-0.61-0.268-1.105-0.516-1.546c0.319-0.46,0.681-0.878,1.031-1.308c0.39,0.416,0.741,0.871,1.069,1.348
		c-0.293,0.368-0.451,0.87-0.515,1.466c0.306-0.157,0.514-0.753,0.95-0.91c0.224,0.199,0.41,0.435,0.556,0.712
		c-0.219,0.156-0.455,0.292-0.635,0.475c-0.843,0.869-1.108,3.045-0.04,3.806c1.318,0.938,2.677-0.874,2.814-2.219
		c0.148-1.457-0.69-2.342-1.069-3.171c1.296,0.91,2.229,2.182,2.497,4.121c0,0.384,0,0.767,0,1.148
		c-0.485,2.929-2.643,5.353-6.264,5.034c-1.355-0.119-2.614-0.839-3.408-1.665c-0.837-0.872-1.451-2.122-1.585-3.605
		C367.114,12.93,367.114,12.706,367.114,12.482z"/>
</g>
<g>
	<path fill-rule="evenodd" clip-rule="evenodd" fill="#211915" d="M418.795,8.523l-0.91-0.061c-0.031-0.52-0.167-0.595-0.167-0.595
		v0.874v0.874c0,0,0.136-0.075,0.167-0.596l0.91-0.06c0,0-0.476-0.054-0.65-0.218C418.319,8.577,418.795,8.523,418.795,8.523z"/>
	<path fill-rule="evenodd" clip-rule="evenodd" fill="#211915" d="M416.437,8.523l0.912-0.061c0.031-0.52,0.165-0.595,0.165-0.595
		v0.874v0.874c0,0-0.134-0.075-0.165-0.596l-0.912-0.06c0,0,0.477-0.054,0.65-0.218C416.913,8.577,416.437,8.523,416.437,8.523z"/>
	<path fill-rule="evenodd" clip-rule="evenodd" fill="#211915" d="M420.113,14.973v-2.238c0,0-0.067-0.521,0.407-0.928
		c0.475-0.406,1.853-1.377,1.763-2.757c-0.09-1.379-0.481-2.328-2.173-3.3c0,0,2.602,0.633,3.37,3.3c0,0,0.905,2.193-0.699,4.476
		C422.781,13.525,421.695,15.04,420.113,14.973z"/>
	<path fill-rule="evenodd" clip-rule="evenodd" fill="#211915" d="M420.117,16.686c0,0-0.343-0.083-0.274-0.357l0.268-0.678
		c0,0,0.185-0.498,0.999-0.588c0,0,1.818-0.255,2.417-1.786c0,0,1.085-1.604,0.543-3.978c0,0,0.813,0.932,0.746,3.676
		c0,0-0.137,2.743-3.052,3.783C421.764,16.758,420.944,16.938,420.117,16.686z"/>
	<path fill-rule="evenodd" clip-rule="evenodd" fill="#211915" d="M415.105,14.973v-2.238c0,0,0.067-0.521-0.408-0.928
		c-0.475-0.406-1.853-1.377-1.762-2.757c0.09-1.379,0.48-2.328,2.172-3.3c0,0-2.602,0.633-3.37,3.3c0,0-0.905,2.193,0.701,4.476
		C412.438,13.525,413.522,15.04,415.105,14.973z"/>
	<path fill-rule="evenodd" clip-rule="evenodd" fill="#211915" d="M415.101,16.686c0,0,0.343-0.083,0.274-0.357l-0.268-0.678
		c0,0-0.184-0.498-0.997-0.588c0,0-1.819-0.255-2.418-1.786c0,0-1.085-1.604-0.543-3.978c0,0-0.813,0.932-0.746,3.676
		c0,0,0.136,2.743,3.051,3.783C413.454,16.758,414.274,16.938,415.101,16.686z"/>
	<path fill="#211915" d="M421.673,17.097c0,0-0.685-0.007-1.296-0.105c0,0-0.591-0.109-0.885,0.427c0,0-0.357,0.696-0.389,0.847
		c0,0-1.092-0.58-1.193-4.016l-0.102,4.476c0,0-0.047,0.158-0.153,0.186c-0.105-0.027-0.152-0.186-0.152-0.186l-0.038-0.868l0,0
		l-0.086-7.42c-0.022-0.248-0.403-0.384-0.403-0.384c-0.297-0.135-0.456-0.346-0.456-0.346c-0.919-0.814-0.083-2.004-0.083-2.004
		c-0.956,0.995-0.972,2.292-0.972,2.292c1.07,0.15,1.511,2.063,1.511,2.063l-0.048,3.451c-0.138,1.764-0.403,2.386-0.553,2.601
		c-0.1,0.118-0.168,0.157-0.168,0.157c-0.03-0.15-0.387-0.847-0.387-0.847c-0.295-0.536-0.887-0.427-0.887-0.427
		c-0.609,0.099-1.296,0.105-1.296,0.105c-1.74-0.212-2.637-1.567-2.637-1.567c0.683,1.951,1.79,2.482,1.79,2.482
		c0.881,0.587,2.072,0,2.072,0c-0.287,0.502-1.113,0.758-1.113,0.758c1.37,0.875,2.688,1.178,3.844,1.192v0.002
		c0.021,0,0.04-0.001,0.062-0.002c0.021,0.001,0.042,0.002,0.063,0.002v-0.002c1.156-0.015,2.474-0.317,3.843-1.192
		c0,0-0.824-0.256-1.113-0.758c0,0,1.191,0.587,2.074,0c0,0,1.106-0.531,1.789-2.482C424.311,15.529,423.414,16.885,421.673,17.097z
		"/>
	<g>
		<path fill="#211915" d="M417.582,21.558c-4.811,0-8.727-3.916-8.727-8.727c0-4.812,3.916-8.727,8.727-8.727
			c4.813,0,8.727,3.915,8.727,8.727C426.309,17.642,422.395,21.558,417.582,21.558z M417.582,4.646
			c-4.512,0-8.184,3.672-8.184,8.185c0,4.512,3.672,8.184,8.184,8.184c4.513,0,8.185-3.672,8.185-8.184
			C425.767,8.318,422.095,4.646,417.582,4.646z"/>
	</g>
</g>
<g>
	<polygon fill-rule="evenodd" clip-rule="evenodd" fill="#211915" points="552.636,5.104 555.555,6.775 555.938,6.103 
		552.501,4.118 549.034,6.119 549.494,6.905 	"/>
	<polygon fill-rule="evenodd" clip-rule="evenodd" fill="#211915" points="545.894,16.693 545.894,13.097 545.039,13.097 
		545.039,17.04 548.533,19.059 548.9,18.416 	"/>
	<polygon fill-rule="evenodd" clip-rule="evenodd" fill="#211915" points="552.636,20.558 549.486,18.751 549.118,19.396 
		552.501,21.349 555.978,19.341 555.671,18.817 	"/>
	<polygon fill-rule="evenodd" clip-rule="evenodd" fill="#211915" points="545.894,8.967 548.909,7.24 548.451,6.457 545.039,8.426 
		545.039,12.421 545.894,12.421 	"/>
	<polygon fill-rule="evenodd" clip-rule="evenodd" fill="#211915" points="559.38,8.967 559.38,12.421 559.961,12.421 
		559.961,8.426 556.524,6.441 556.142,7.112 	"/>
	<polygon fill-rule="evenodd" clip-rule="evenodd" fill="#211915" points="559.38,16.693 556.258,18.482 556.563,19.003 
		559.961,17.04 559.961,13.097 559.38,13.097 	"/>
	<polygon fill="#211915" points="558.434,13.691 558.005,13.711 558.005,14.919 554.989,13.574 555.023,13.631 555.023,11.99 
		557.989,10.651 558.039,11.888 558.423,11.881 558.476,9.358 556.254,8.204 556.06,8.586 557.11,9.181 554.522,11.087 
		553.136,10.293 553.477,7.104 554.568,7.687 554.757,7.353 552.607,6.031 550.487,7.363 550.719,7.724 551.764,7.119 
		552.094,10.259 550.654,11.083 548.116,9.226 549.167,8.574 548.973,8.243 546.751,9.44 546.841,11.942 547.269,11.923 
		547.269,10.715 550.147,12.003 550.147,13.69 547.284,14.982 547.235,13.746 546.851,13.753 546.798,16.276 549.02,17.431 
		549.215,17.048 548.164,16.453 550.774,14.531 550.771,14.525 552.141,15.31 551.798,18.529 550.706,17.947 550.518,18.281 
		552.667,19.604 554.786,18.271 554.555,17.91 553.511,18.515 553.159,15.174 553.067,15.288 554.52,14.457 554.511,14.471 
		557.158,16.408 556.107,17.06 556.302,17.391 558.523,16.193 	"/>
</g>
<g>
	<path fill-rule="evenodd" clip-rule="evenodd" fill="#211915" d="M327.583,3.506c-5.012,0-9.076,4.063-9.076,9.077
		c0,5.012,4.064,9.077,9.076,9.077c5.013,0,9.077-4.065,9.077-9.077C336.66,7.57,332.596,3.506,327.583,3.506z M327.583,20.81
		c-4.542,0-8.226-3.684-8.226-8.227c0-4.542,3.684-8.226,8.226-8.226c4.544,0,8.226,3.684,8.226,8.226
		C335.809,17.126,332.127,20.81,327.583,20.81z"/>
	<path fill-rule="evenodd" clip-rule="evenodd" fill="#211915" d="M322.492,8.659l-0.681-0.682
		c-0.849,1.061-1.409,2.359-1.567,3.779h0.965C321.357,10.598,321.813,9.538,322.492,8.659z"/>
	<path fill-rule="evenodd" clip-rule="evenodd" fill="#211915" d="M326.827,6.2V5.234c-1.414,0.145-2.707,0.688-3.771,1.515
		l0.683,0.68C324.62,6.771,325.677,6.333,326.827,6.2z"/>
	<path fill-rule="evenodd" clip-rule="evenodd" fill="#211915" d="M331.561,7.534l0.682-0.681c-1.029-0.838-2.286-1.403-3.666-1.588
		V6.23C329.691,6.403,330.713,6.864,331.561,7.534z"/>
	<path fill-rule="evenodd" clip-rule="evenodd" fill="#211915" d="M333.959,11.755h0.964c-0.152-1.362-0.675-2.611-1.463-3.646
		l-0.685,0.684C333.398,9.645,333.817,10.657,333.959,11.755z"/>
	<path fill-rule="evenodd" clip-rule="evenodd" fill="#211915" d="M328.576,18.937V19.9c1.355-0.182,2.594-0.731,3.613-1.545
		l-0.682-0.682C330.67,18.321,329.669,18.766,328.576,18.937z"/>
	<path fill-rule="evenodd" clip-rule="evenodd" fill="#211915" d="M321.222,13.505h-0.966c0.175,1.407,0.745,2.691,1.598,3.737
		l0.681-0.682C321.852,15.695,321.385,14.648,321.222,13.505z"/>
	<path fill-rule="evenodd" clip-rule="evenodd" fill="#211915" d="M323.793,17.774l-0.684,0.685
		c1.055,0.804,2.327,1.331,3.718,1.472v-0.965C325.701,18.834,324.665,18.412,323.793,17.774z"/>
	<path fill-rule="evenodd" clip-rule="evenodd" fill="#211915" d="M333.945,13.505c-0.155,1.085-0.581,2.084-1.209,2.922
		l0.683,0.683c0.793-1.021,1.323-2.257,1.492-3.604H333.945z"/>
	<path fill-rule="evenodd" clip-rule="evenodd" fill="#211915" d="M333.067,13.104v-1.088h-2.898
		c-0.066-0.301-0.185-0.583-0.344-0.834l2.048-2.048l-0.769-0.769l-2.031,2.031c-0.255-0.175-0.542-0.303-0.851-0.379V7.17h-1.089
		v2.807c-0.333,0.056-0.645,0.177-0.925,0.346l-1.958-1.958l-0.769,0.769l1.934,1.933c-0.198,0.281-0.342,0.603-0.418,0.95h-2.709
		v1.088h2.7c0.069,0.354,0.21,0.682,0.406,0.969l-1.913,1.913l0.769,0.771l1.93-1.931c0.285,0.179,0.608,0.305,0.953,0.363v2.761
		h1.089v-2.801c0.318-0.078,0.615-0.215,0.878-0.398l2.004,2.006l0.769-0.771l-2.029-2.028c0.158-0.26,0.272-0.547,0.336-0.854
		H333.067z"/>
</g>
</svg>
